<svg width="1440" height="885" viewBox="0 0 1440 885" fill="none" xmlns="http://www.w3.org/2000/svg">
<path d="M175.5 3.5V61M173 62L122 33M121 30V-28.5M123 -30L173 -1M123 -32L173.5 -61M177.5 -61L227 -32.5M178 -1L227 -29.5M178 62L228 33M230 29.5V-28.5" stroke="#3A547A" stroke-linecap="round"/>
<path d="M289.5 3.5V61M287 62L236 33M235 30V-28.5M237 -30L287 -1M237 -32L287.5 -61M291.5 -61L341 -32.5M292 -1L341 -29.5M292 62L342 33M344 29.5V-28.5" stroke="#3A547A" stroke-linecap="round"/>
<path d="M232.5 101.5V159M230 160L179 131M178 128V69.5M180 68L230 97M180 66L230.5 37M234.5 37L284 65.5M235 97L284 68.5M235 160L285 131M287 127.5V69.5" stroke="#3A547A" stroke-linecap="round"/>
<path d="M118.5 101.5V159M116 160L65 131M64 128V69.5M66 68L116 97M66 66L116.5 37M120.5 37L170 65.5M121 97L170 68.5M121 160L171 131M173 127.5V69.5" stroke="#3A547A" stroke-linecap="round"/>
<path d="M61.5 3.5V61M59 62L8 33M7 30V-28.5M9 -30L59 -1M9 -32L59.5 -61M63.5 -61L113 -32.5M64 -1L113 -29.5M64 62L114 33M116 29.5V-28.5" stroke="#3A547A" stroke-linecap="round"/>
<path d="M346.5 101.5V159M344 160L293 131M292 128V69.5M294 68L344 97M294 66L344.5 37M348.5 37L398 65.5M349 97L398 68.5M349 160L399 131M401 127.5V69.5" stroke="#3A547A" stroke-linecap="round"/>
<path d="M460.5 101.5V159M458 160L407 131M406 128V69.5M408 68L458 97M408 66L458.5 37M462.5 37L512 65.5M463 97L512 68.5M463 160L513 131M515 127.5V69.5" stroke="#3A547A" stroke-linecap="round"/>
<path d="M403.5 199.5V257M401 258L350 229M349 226V167.5M351 166L401 195M351 164L401.5 135M405.5 135L455 163.5M406 195L455 166.5M406 258L456 229M458 225.5V167.5" stroke="#3A547A" stroke-linecap="round"/>
<path d="M517.5 199.5V257M515 258L464 229M463 226V167.5M465 166L515 195M465 164L515.5 135M519.5 135L569 163.5M520 195L569 166.5M520 258L570 229M572 225.5V167.5" stroke="#3A547A" stroke-linecap="round"/>
<path d="M460.5 297.5V355M458 356L407 327M406 324V265.5M408 264L458 293M408 262L458.5 233M462.5 233L512 261.5M463 293L512 264.5M463 356L513 327M515 323.5V265.5" stroke="#3A547A" stroke-linecap="round"/>
<path d="M346.5 297.5V355M344 356L293 327M292 324V265.5M294 264L344 293M294 262L344.5 233M348.5 233L398 261.5M349 293L398 264.5M349 356L399 327M401 323.5V265.5" stroke="#3A547A" stroke-linecap="round"/>
<path d="M289.5 199.5V257M287 258L236 229M235 226V167.5M237 166L287 195M237 164L287.5 135M291.5 135L341 163.5M292 195L341 166.5M292 258L342 229M344 225.5V167.5" stroke="#3A547A" stroke-linecap="round"/>
<path d="M574.5 297.5V355M572 356L521 327M520 324V265.5M522 264L572 293M522 262L572.5 233M576.5 233L626 261.5M577 293L626 264.5M577 356L627 327M629 323.5V265.5" stroke="#3A547A" stroke-linecap="round"/>
<path d="M688.5 297.5V355M686 356L635 327M634 324V265.5M636 264L686 293M636 262L686.5 233M690.5 233L740 261.5M691 293L740 264.5M691 356L741 327M743 323.5V265.5" stroke="#3A547A" stroke-linecap="round"/>
<path d="M631.5 395.5V453M629 454L578 425M577 422V363.5M579 362L629 391M579 360L629.5 331M633.5 331L683 359.5M634 391L683 362.5M634 454L684 425M686 421.5V363.5" stroke="#3A547A" stroke-linecap="round"/>
<path d="M745.5 395.5V453M743 454L692 425M691 422V363.5M693 362L743 391M693 360L743.5 331M747.5 331L797 359.5M748 391L797 362.5M748 454L798 425M800 421.5V363.5" stroke="#3A547A" stroke-linecap="round"/>
<path d="M688.5 493.5V551M686 552L635 523M634 520V461.5M636 460L686 489M636 458L686.5 429M690.5 429L740 457.5M691 489L740 460.5M691 552L741 523M743 519.5V461.5" stroke="#3A547A" stroke-linecap="round"/>
<path d="M574.5 493.5V551M572 552L521 523M520 520V461.5M522 460L572 489M522 458L572.5 429M576.5 429L626 457.5M577 489L626 460.5M577 552L627 523M629 519.5V461.5" stroke="#3A547A" stroke-linecap="round"/>
<path d="M517.5 395.5V453M515 454L464 425M463 422V363.5M465 362L515 391M465 360L515.5 331M519.5 331L569 359.5M520 391L569 362.5M520 454L570 425M572 421.5V363.5" stroke="#3A547A" stroke-linecap="round"/>
<path d="M802.5 493.5V551M800 552L749 523M748 520V461.5M750 460L800 489M750 458L800.5 429M804.5 429L854 457.5M805 489L854 460.5M805 552L855 523M857 519.5V461.5" stroke="#3A547A" stroke-linecap="round"/>
<path d="M916.5 493.5V551M914 552L863 523M862 520V461.5M864 460L914 489M864 458L914.5 429M918.5 429L968 457.5M919 489L968 460.5M919 552L969 523M971 519.5V461.5" stroke="#3A547A" stroke-linecap="round"/>
<path d="M859.5 591.5V649M857 650L806 621M805 618V559.5M807 558L857 587M807 556L857.5 527M861.5 527L911 555.5M862 587L911 558.5M862 650L912 621M914 617.5V559.5" stroke="#3A547A" stroke-linecap="round"/>
<path d="M973.5 591.5V649M971 650L920 621M919 618V559.5M921 558L971 587M921 556L971.5 527M975.5 527L1025 555.5M976 587L1025 558.5M976 650L1026 621M1028 617.5V559.5" stroke="#3A547A" stroke-linecap="round"/>
<path d="M916.5 689.5V747M914 748L863 719M862 716V657.5M864 656L914 685M864 654L914.5 625M918.5 625L968 653.5M919 685L968 656.5M919 748L969 719M971 715.5V657.5" stroke="#3A547A" stroke-linecap="round"/>
<path d="M802.5 689.5V747M800 748L749 719M748 716V657.5M750 656L800 685M750 654L800.5 625M804.5 625L854 653.5M805 685L854 656.5M805 748L855 719M857 715.5V657.5" stroke="#3A547A" stroke-linecap="round"/>
<path d="M745.5 591.5V649M743 650L692 621M691 618V559.5M693 558L743 587M693 556L743.5 527M747.5 527L797 555.5M748 587L797 558.5M748 650L798 621M800 617.5V559.5" stroke="#3A547A" stroke-linecap="round"/>
<path d="M1030.5 689.5V747M1028 748L977 719M976 716V657.5M978 656L1028 685M978 654L1028.5 625M1032.5 625L1082 653.5M1033 685L1082 656.5M1033 748L1083 719M1085 715.5V657.5" stroke="#3A547A" stroke-linecap="round"/>
<path d="M1144.5 689.5V747M1142 748L1091 719M1090 716V657.5M1092 656L1142 685M1092 654L1142.5 625M1146.5 625L1196 653.5M1147 685L1196 656.5M1147 748L1197 719M1199 715.5V657.5" stroke="#3A547A" stroke-linecap="round"/>
<path d="M1087.5 787.5V845M1085 846L1034 817M1033 814V755.5M1035 754L1085 783M1035 752L1085.5 723M1089.5 723L1139 751.5M1090 783L1139 754.5M1090 846L1140 817M1142 813.5V755.5" stroke="#3A547A" stroke-linecap="round"/>
<path d="M1201.5 787.5V845M1199 846L1148 817M1147 814V755.5M1149 754L1199 783M1149 752L1199.5 723M1203.5 723L1253 751.5M1204 783L1253 754.5M1204 846L1254 817M1256 813.5V755.5" stroke="#3A547A" stroke-linecap="round"/>
<path d="M1144.5 885.5V943M1142 944L1091 915M1090 912V853.5M1092 852L1142 881M1092 850L1142.5 821M1146.5 821L1196 849.5M1147 881L1196 852.5M1147 944L1197 915M1199 911.5V853.5" stroke="#3A547A" stroke-linecap="round"/>
<path d="M1030.5 885.5V943M1028 944L977 915M976 912V853.5M978 852L1028 881M978 850L1028.5 821M1032.5 821L1082 849.5M1033 881L1082 852.5M1033 944L1083 915M1085 911.5V853.5" stroke="#3A547A" stroke-linecap="round"/>
<path d="M973.5 787.5V845M971 846L920 817M919 814V755.5M921 754L971 783M921 752L971.5 723M975.5 723L1025 751.5M976 783L1025 754.5M976 846L1026 817M1028 813.5V755.5" stroke="#3A547A" stroke-linecap="round"/>
<path d="M1258.5 885.5V943M1256 944L1205 915M1204 912V853.5M1206 852L1256 881M1206 850L1256.5 821M1260.5 821L1310 849.5M1261 881L1310 852.5M1261 944L1311 915M1313 911.5V853.5" stroke="#3A547A" stroke-linecap="round"/>
<path d="M1372.5 885.5V943M1370 944L1319 915M1318 912V853.5M1320 852L1370 881M1320 850L1370.5 821M1374.5 821L1424 849.5M1375 881L1424 852.5M1375 944L1425 915M1427 911.5V853.5" stroke="#3A547A" stroke-linecap="round"/>
<path d="M-52.5 692.5V750M-55 751L-106 722M-107 719V660.5M-105 659L-55 688M-105 657L-54.5 628M-50.5 628L-1 656.5M-50 688L-1 659.5M-50 751L0 722M2 718.5V660.5" stroke="#3A547A" stroke-linecap="round"/>
<path d="M61.5 692.5V750M59 751L8 722M7 719V660.5M9 659L59 688M9 657L59.5 628M63.5 628L113 656.5M64 688L113 659.5M64 751L114 722M116 718.5V660.5" stroke="#3A547A" stroke-linecap="round"/>
<path d="M4.5 790.5V848M2 849L-49 820M-50 817V758.5M-48 757L2 786M-48 755L2.5 726M6.5 726L56 754.5M7 786L56 757.5M7 849L57 820M59 816.5V758.5" stroke="#3A547A" stroke-linecap="round"/>
<path d="M118.5 790.5V848M116 849L65 820M64 817V758.5M66 757L116 786M66 755L116.5 726M120.5 726L170 754.5M121 786L170 757.5M121 849L171 820M173 816.5V758.5" stroke="#3A547A" stroke-linecap="round"/>
<path d="M61.5 888.5V946M59 947L8 918M7 915V856.5M9 855L59 884M9 853L59.5 824M63.5 824L113 852.5M64 884L113 855.5M64 947L114 918M116 914.5V856.5" stroke="#3A547A" stroke-linecap="round"/>
<path d="M-52.5 888.5V946M-55 947L-106 918M-107 915V856.5M-105 855L-55 884M-105 853L-54.5 824M-50.5 824L-1 852.5M-50 884L-1 855.5M-50 947L0 918M2 914.5V856.5" stroke="#3A547A" stroke-linecap="round"/>
<path d="M175.5 888.5V946M173 947L122 918M121 915V856.5M123 855L173 884M123 853L173.5 824M177.5 824L227 852.5M178 884L227 855.5M178 947L228 918M230 914.5V856.5" stroke="#3A547A" stroke-linecap="round"/>
<path d="M289.5 888.5V946M287 947L236 918M235 915V856.5M237 855L287 884M237 853L287.5 824M291.5 824L341 852.5M292 884L341 855.5M292 947L342 918M344 914.5V856.5" stroke="#3A547A" stroke-linecap="round"/>
<path d="M1144.5 0.5V58M1142 59L1091 30M1090 27V-31.5M1092 -33L1142 -4M1092 -35L1142.5 -64M1146.5 -64L1196 -35.5M1147 -4L1196 -32.5M1147 59L1197 30M1199 26.5V-31.5" stroke="#3A547A" stroke-linecap="round"/>
<path d="M1030.5 0.5V58M1028 59L977 30M976 27V-31.5M978 -33L1028 -4M978 -35L1028.5 -64M1032.5 -64L1082 -35.5M1033 -4L1082 -32.5M1033 59L1083 30M1085 26.5V-31.5" stroke="#3A547A" stroke-linecap="round"/>
<path d="M1258.5 0.5V58M1256 59L1205 30M1204 27V-31.5M1206 -33L1256 -4M1206 -35L1256.5 -64M1260.5 -64L1310 -35.5M1261 -4L1310 -32.5M1261 59L1311 30M1313 26.5V-31.5" stroke="#3A547A" stroke-linecap="round"/>
<path d="M1372.5 0.5V58M1370 59L1319 30M1318 27V-31.5M1320 -33L1370 -4M1320 -35L1370.5 -64M1374.5 -64L1424 -35.5M1375 -4L1424 -32.5M1375 59L1425 30M1427 26.5V-31.5" stroke="#3A547A" stroke-linecap="round"/>
<path d="M1315.5 98.5V156M1313 157L1262 128M1261 125V66.5M1263 65L1313 94M1263 63L1313.5 34M1317.5 34L1367 62.5M1318 94L1367 65.5M1318 157L1368 128M1370 124.5V66.5" stroke="#3A547A" stroke-linecap="round"/>
<path d="M1429.5 98.5V156M1427 157L1376 128M1375 125V66.5M1377 65L1427 94M1377 63L1427.5 34M1431.5 34L1481 62.5M1432 94L1481 65.5M1432 157L1482 128M1484 124.5V66.5" stroke="#3A547A" stroke-linecap="round"/>
<path d="M1372.5 196.5V254M1370 255L1319 226M1318 223V164.5M1320 163L1370 192M1320 161L1370.5 132M1374.5 132L1424 160.5M1375 192L1424 163.5M1375 255L1425 226M1427 222.5V164.5" stroke="#3A547A" stroke-linecap="round"/>
<path d="M1258.5 196.5V254M1256 255L1205 226M1204 223V164.5M1206 163L1256 192M1206 161L1256.5 132M1260.5 132L1310 160.5M1261 192L1310 163.5M1261 255L1311 226M1313 222.5V164.5" stroke="#3A547A" stroke-linecap="round"/>
<path d="M1201.5 98.5V156M1199 157L1148 128M1147 125V66.5M1149 65L1199 94M1149 63L1199.5 34M1203.5 34L1253 62.5M1204 94L1253 65.5M1204 157L1254 128M1256 124.5V66.5" stroke="#3A547A" stroke-linecap="round"/>
<path d="M1486.5 196.5V254M1484 255L1433 226M1432 223V164.5M1434 163L1484 192M1434 161L1484.5 132M1488.5 132L1538 160.5M1489 192L1538 163.5M1489 255L1539 226M1541 222.5V164.5" stroke="#3A547A" stroke-linecap="round"/>
<path d="M1486.5 392.5V450M1484 451L1433 422M1432 419V360.5M1434 359L1484 388M1434 357L1484.5 328M1488.5 328L1538 356.5M1489 388L1538 359.5M1489 451L1539 422M1541 418.5V360.5" stroke="#3A547A" stroke-linecap="round"/>
<path d="M1429.5 294.5V352M1427 353L1376 324M1375 321V262.5M1377 261L1427 290M1377 259L1427.5 230M1431.5 230L1481 258.5M1432 290L1481 261.5M1432 353L1482 324M1484 320.5V262.5" stroke="#3A547A" stroke-linecap="round"/>
</svg>
