<svg width="80" height="80" viewBox="0 0 80 80" fill="none" xmlns="http://www.w3.org/2000/svg">
<path d="M39.4611 42.6083C39.491 42.6308 39.5217 42.6523 39.5532 42.6728L39.4611 42.6083ZM39.4611 42.6083C39.7561 42.7 40.0728 42.801 40.4248 42.922C40.4119 42.9255 40.3988 42.9286 40.3857 42.9313C40.0898 42.9231 39.8018 42.8339 39.5533 42.6729L39.4611 42.6083ZM44.7651 46.505L44.7651 46.505C45.5081 45.6931 46.0058 44.688 46.2011 43.6049L45.5523 43.4879L46.2129 43.5178C46.3329 42.1966 46.1005 40.9922 45.4306 39.9782C44.8766 39.1396 44.0713 38.5037 43.0778 38.0385L45.4545 36.8834L46.3545 36.4459L45.9164 35.5462C45.2343 34.1453 44.1155 33.0124 42.7385 32.3116V31.3058V30.3058H41.7385H38.2604H37.2604V31.3058V32.0296C36.9935 32.1519 36.7372 32.2971 36.4948 32.4636L36.4883 32.4681L36.4819 32.4726C35.3477 33.278 34.56 34.4833 34.2782 35.8455L34.2782 35.8455C34.0163 37.1116 34.2087 38.427 34.8171 39.5614V39.594L34.9789 39.8427C35.5965 40.7918 36.3219 41.3632 37.0792 41.7534L34.5099 43.2301L33.6651 43.7156L34.1286 44.5727C34.8473 45.902 35.9382 46.9861 37.2603 47.6973V48.6966V49.6966H38.2603H41.7389H42.7389V48.6966V47.9367C43.5063 47.6116 44.1983 47.1244 44.7651 46.505ZM30.8689 30.8699C33.2907 28.4482 36.5749 27.0879 39.9997 27.0879C43.4245 27.0879 46.7087 28.4482 49.1304 30.8699C51.5521 33.2916 52.9124 36.5758 52.9124 40.0006C52.9124 43.4255 51.5521 46.7097 49.1304 49.1314C46.7087 51.5531 43.4245 52.9134 39.9997 52.9134C36.5749 52.9134 33.2907 51.5531 30.8689 49.1314C28.4472 46.7097 27.0869 43.4255 27.0869 40.0006C27.0869 36.5758 28.4472 33.2916 30.8689 30.8699Z" stroke="black" stroke-width="2"/>
<path d="M41.7336 57.0696C42.7915 57.3924 43.6719 58.1327 44.1711 59.119C44.2707 59.329 44.3474 59.5486 44.3993 59.7733L44.6928 61.0435L45.8436 60.4308L56.4262 54.7959L56.436 54.7907L56.4458 54.7852C57.4161 54.2404 58.5892 54.1957 59.5984 54.6651L59.5987 54.6652C60.5817 55.122 61.2925 56.0126 61.5215 57.0688L61.538 57.1546C61.6779 57.8849 61.5953 58.6398 61.3008 59.323L61.3006 59.3233C61.0074 60.0041 60.5165 60.5818 59.8918 60.9812L42.4278 71.8213L42.4256 71.8227C40.3326 73.1295 37.9167 73.8269 35.4493 73.8359H18.2607H17.2709L17.2608 74.8257C17.2495 75.9372 16.8004 76.999 16.0107 77.7807C15.2209 78.5625 14.1549 79.0007 13.0434 79.0007H5.21736C4.09845 79.0007 3.02572 78.5563 2.23502 77.7657C1.44439 76.9751 1 75.9024 1 74.7834V58.4441C1 57.3252 1.44443 56.2525 2.23507 55.4618C3.02564 54.6711 4.09837 54.2268 5.21736 54.2268H13.0397C14.1057 54.2351 15.1294 54.647 15.9035 55.3793L16.4671 55.9123L17.1235 55.4991C19.3188 54.117 24.085 51.8294 28.9255 54.1945L28.929 54.1962C30.2272 54.8243 31.2119 55.3693 32.0206 55.8169L32.0631 55.8404L32.0673 55.8427L32.1461 55.8858C33.4625 56.6065 34.4205 57.1309 35.7607 57.3279C37.0771 57.5215 38.7173 57.3947 41.4622 57.0537L41.4757 57.052L41.4891 57.05C41.5686 57.0379 41.6508 57.044 41.7296 57.0684L41.7336 57.0696Z" stroke="black" stroke-width="2"/>
<path d="M74.8645 1.0008H74.7815H66.9554C65.844 1.0008 64.778 1.43902 63.9881 2.22082M74.8645 1.0008L63.9881 2.22082M74.8645 1.0008C75.9537 1.02195 76.9935 1.46377 77.7649 2.23507C78.5555 3.02565 78.9999 4.09837 78.9999 5.21736V21.5566C78.9999 22.6755 78.5554 23.7483 77.7648 24.539C76.9742 25.3296 75.9015 25.774 74.7825 25.774H66.9591C65.8942 25.7682 64.8706 25.359 64.0945 24.6285L63.5229 24.0905L62.8645 24.518C60.6656 25.9458 58.1182 26.744 55.4981 26.8261C53.9648 26.8238 52.4511 26.4746 51.0712 25.805L51.0701 25.8074L51.0707 25.8044C49.7724 25.1763 48.7877 24.6313 47.979 24.1837L47.9366 24.1603L47.9324 24.158L47.8536 24.1148C46.5372 23.3942 45.5792 22.8698 44.2391 22.6727C42.9226 22.4792 41.2824 22.606 38.5375 22.947L38.5241 22.9486L38.5106 22.9507C38.4312 22.9628 38.3489 22.9567 38.2701 22.9323L38.2661 22.9311C37.2083 22.6082 36.3279 21.8679 35.8286 20.8817C35.729 20.6717 35.6523 20.4521 35.6004 20.2274L35.3073 18.9588L34.1572 19.5693L23.5746 25.1867L23.5667 25.191L23.5588 25.1953C22.9309 25.5433 22.2114 25.6898 21.4983 25.6147L21.4976 25.6147C20.7862 25.5402 20.1147 25.2487 19.5738 24.7798C19.0032 24.2708 18.6124 23.5911 18.4599 22.842C18.3213 22.1132 18.4042 21.3601 18.698 20.6785L18.6982 20.6782C18.9914 19.9974 19.4823 19.4198 20.1071 19.0204L37.571 8.18022L37.5732 8.17882C39.6662 6.87204 42.082 6.17466 44.5494 6.16568M74.8645 1.0008L44.5494 6.16568M63.9881 2.22082C63.1984 3.0025 62.7493 4.06438 62.738 5.17587L62.7279 6.16568H61.7381H44.5494M63.9881 2.22082L44.5494 6.16568" stroke="black" stroke-width="2"/>
</svg>
