<svg width="80" height="80" viewBox="0 0 80 80" fill="none" xmlns="http://www.w3.org/2000/svg">
<path d="M52.7959 20.8062H57.0608V22.9386H52.7959V20.8062Z" fill="black"/>
<path d="M44.2656 20.8062H48.5305V22.9386H44.2656V20.8062Z" fill="black"/>
<path d="M35.7349 20.8062H39.9997V22.9386H35.7349V20.8062Z" fill="black"/>
<path d="M27.2041 20.8062H31.469V22.9386H27.2041V20.8062Z" fill="black"/>
<path d="M20.8066 22.939H22.9391V27.2038H20.8066V22.939Z" fill="black"/>
<path d="M20.8066 31.4695H22.9391V35.7344H20.8066V31.4695Z" fill="black"/>
<path d="M20.8066 39.9998H22.9391V44.2646H20.8066V39.9998Z" fill="black"/>
<path d="M20.8066 48.5305H22.9391V52.7954H20.8066V48.5305Z" fill="black"/>
<path d="M22.9395 57.0608H27.2043V59.1932H22.9395V57.0608Z" fill="black"/>
<path d="M31.4697 57.0608H35.7346V59.1932H31.4697V57.0608Z" fill="black"/>
<path d="M40 57.0608H44.2649V59.1932H40V57.0608Z" fill="black"/>
<path d="M48.5308 57.0608H52.7956V59.1932H48.5308V57.0608Z" fill="black"/>
<path d="M57.0615 52.7957H59.194V57.0605H57.0615V52.7957Z" fill="black"/>
<path d="M57.0615 44.2651H59.194V48.53H57.0615V44.2651Z" fill="black"/>
<path d="M57.0615 35.7349H59.194V39.9997H57.0615V35.7349Z" fill="black"/>
<path d="M57.0615 27.2041H59.194V31.469H57.0615V27.2041Z" fill="black"/>
<path d="M25.2847 54.7151H54.7149V25.2849H25.2847V54.7151ZM27.4171 38.7205C30.2643 38.5501 38.8798 38.7205 42.7617 46.3444C41.0547 48.1265 39.7494 50.253 38.9335 52.5819H27.4179L27.4171 38.7205ZM41.2154 52.5827V52.582C42.0879 50.2226 43.626 48.1661 45.6432 46.6635C47.6612 45.1603 50.0719 44.276 52.5821 44.116V52.582L41.2154 52.5827ZM52.5821 27.4177V41.9508C49.6174 42.0676 46.7589 43.0911 44.3928 44.8835C40 36.8647 30.7232 36.4593 27.4179 36.5983V27.4175L52.5821 27.4177Z" fill="black"/>
<path d="M46.1962 39.1051C47.3841 39.1051 48.5236 38.6328 49.3634 37.793C50.2031 36.9533 50.6747 35.8144 50.6747 34.6266C50.6747 33.4388 50.2031 32.2992 49.3634 31.4595C48.5236 30.6198 47.384 30.1482 46.1962 30.1482C45.0084 30.1482 43.8696 30.6198 43.0298 31.4595C42.1893 32.2993 41.7178 33.4389 41.7178 34.6266C41.7207 35.813 42.1931 36.951 43.0328 37.79C43.8718 38.629 45.0091 39.102 46.1961 39.105L46.1962 39.1051ZM46.1962 32.2807C47.1453 32.2807 48.0007 32.8519 48.3637 33.7289C48.7266 34.6051 48.5258 35.6144 47.8549 36.2854C47.184 36.9563 46.1754 37.1571 45.2984 36.7934C44.4222 36.4304 43.8502 35.575 43.8502 34.6267C43.8562 33.3332 44.9035 32.2867 46.1961 32.2808L46.1962 32.2807Z" fill="black"/>
<path d="M41.0666 71.6045V61.8584H38.9334V71.6045C37.5819 71.9533 36.4862 72.9418 36.0007 74.2509C35.5157 75.5599 35.7017 77.0237 36.499 78.1699C37.2964 79.3161 38.604 79.9997 40.0001 79.9997C41.3962 79.9997 42.7038 79.3161 43.5012 78.1699C44.2986 77.0237 44.4846 75.5599 43.9996 74.2509C43.5139 72.9418 42.4183 71.9533 41.0669 71.6045H41.0666ZM40 77.8531C39.1372 77.8531 38.3599 77.3332 38.0296 76.5366C37.6993 75.7392 37.8823 74.8221 38.4922 74.2122C39.1021 73.6023 40.0192 73.42 40.8158 73.7503C41.6132 74.0798 42.1324 74.8578 42.1324 75.7207C42.1324 76.286 41.9077 76.8282 41.5076 77.2284C41.1082 77.6285 40.5652 77.8531 39.9999 77.8531L40 77.8531Z" fill="black"/>
<path d="M57.4138 66.5835C56.4707 66.5865 55.5551 66.9019 54.8097 67.4806C54.0652 68.0592 53.5334 68.8692 53.2976 69.7819H51.5169C50.9278 69.7819 50.4503 69.3051 50.4503 68.716V61.8596H48.3179V68.716C48.3179 69.5639 48.6548 70.3777 49.2551 70.9779C49.8546 71.5782 50.6683 71.9151 51.517 71.9151H53.2976C53.5654 72.9505 54.2118 73.8482 55.1103 74.4299C56.0088 75.0108 57.0925 75.2332 58.1472 75.0525C59.2019 74.8725 60.1496 74.302 60.8033 73.4548C61.4571 72.6083 61.7687 71.5463 61.6765 70.4803C61.5842 69.4145 61.0948 68.4222 60.3049 67.7007C59.5157 66.9784 58.4833 66.5798 57.4137 66.5835L57.4138 66.5835ZM57.4138 72.9818V72.981C56.551 72.981 55.7737 72.4619 55.4434 71.6645C55.1132 70.8679 55.2954 69.9508 55.9053 69.3409C56.5153 68.731 57.4331 68.548 58.2297 68.8783C59.0263 69.2085 59.5462 69.9858 59.5462 70.8487C59.5462 71.414 59.3216 71.9569 58.9215 72.3563C58.5213 72.7565 57.9791 72.9811 57.4138 72.9811L57.4138 72.9818Z" fill="black"/>
<path d="M29.5501 68.716C29.5501 68.9987 29.4378 69.2702 29.2377 69.4703C29.0376 69.6696 28.7661 69.7819 28.4835 69.7819H26.7028C26.354 68.4304 25.3655 67.3347 24.0565 66.8492C22.7474 66.3642 21.2837 66.5502 20.1374 67.3475C18.9911 68.1449 18.3076 69.4525 18.3076 70.8486C18.3076 72.2447 18.9912 73.5523 20.1374 74.3498C21.2836 75.1472 22.7474 75.3331 24.0565 74.8481C25.3655 74.3624 26.354 73.2668 26.7028 71.9154H28.4835C29.3321 71.9154 30.1459 71.5784 30.7454 70.9782C31.3456 70.3779 31.6826 69.5642 31.6826 68.7163V61.8599H29.5502L29.5501 68.716ZM22.5874 72.9809H22.5867C21.7246 72.9809 20.9466 72.4617 20.6163 71.6644C20.2868 70.8678 20.469 69.9507 21.0789 69.3408C21.6889 68.7309 22.606 68.5479 23.4033 68.8781C24.1999 69.2084 24.7199 69.9856 24.7199 70.8485C24.7199 71.4138 24.4945 71.9568 24.0951 72.3562C23.6949 72.7564 23.1527 72.981 22.5866 72.981L22.5874 72.9809Z" fill="black"/>
<path d="M4.27868 35.7349C3.20909 35.7312 2.17671 36.1298 1.38745 36.8521C0.597542 37.5736 0.108103 38.5658 0.015886 39.6317C-0.076331 40.6977 0.2353 41.7598 0.889102 42.6062C1.5429 43.4534 2.49051 44.0231 3.54517 44.2039C4.59983 44.3846 5.68351 44.1622 6.58207 43.5806C7.48059 42.9996 8.12695 42.1019 8.39471 41.0665H18.1408V38.9333H8.39471C8.15892 38.0207 7.62711 37.2107 6.88256 36.632C6.13727 36.0533 5.22239 35.738 4.27847 35.735L4.27868 35.7349ZM4.27868 42.1331V42.1324C3.41662 42.1324 2.6386 41.6132 2.30829 40.8159C1.97878 40.0193 2.16102 39.1021 2.77094 38.4923C3.38085 37.8824 4.29795 37.6994 5.09531 38.0296C5.89192 38.3599 6.41184 39.1371 6.41184 40C6.41184 40.5653 6.18721 41.1083 5.78706 41.5077C5.38688 41.9079 4.84467 42.1325 4.27863 42.1325L4.27868 42.1331Z" fill="black"/>
<path d="M8.08476 51.5159V53.2966C6.73327 53.6454 5.63757 54.634 5.15202 55.943C4.66706 57.2521 4.85301 58.7158 5.65037 59.8621C6.44772 61.0083 7.75538 61.6918 9.15149 61.6918C10.5476 61.6918 11.8552 61.0083 12.6526 59.8621C13.4501 58.7158 13.6359 57.2521 13.151 55.943C12.6653 54.6339 11.5696 53.6454 10.2182 53.2966V51.5159C10.2182 50.9268 10.695 50.4493 11.2841 50.4493H18.1405V48.3169H11.2841C10.4362 48.3169 9.62244 48.6538 9.02218 49.2541C8.42194 49.8536 8.08499 50.6673 8.08499 51.516L8.08476 51.5159ZM11.2839 57.4128C11.2839 58.2749 10.7647 59.0529 9.96736 59.3832C9.17074 59.7127 8.25364 59.5305 7.64374 58.9206C7.03383 58.3107 6.85085 57.3936 7.1811 56.5962C7.51135 55.7996 8.28862 55.2797 9.15149 55.2797C9.71679 55.2797 10.2598 55.5051 10.6592 55.9045C11.0594 56.3046 11.284 56.8469 11.284 57.4129L11.2839 57.4128Z" fill="black"/>
<path d="M10.2178 28.4837V26.7031C11.5693 26.3542 12.6649 25.3657 13.1505 24.0567C13.6355 22.7476 13.4495 21.2839 12.6522 20.1376C11.8548 18.9913 10.5471 18.3079 9.15103 18.3079C7.75492 18.3079 6.44736 18.9914 5.64991 20.1376C4.85246 21.2838 4.66659 22.7476 5.15156 24.0567C5.63726 25.3658 6.73288 26.3542 8.0843 26.7031V28.4837C8.0843 29.3324 8.42123 30.1461 9.02149 30.7456C9.62173 31.3459 10.4355 31.6828 11.2834 31.6828H18.1398V29.5504H11.2834C10.6943 29.5504 10.2175 29.0729 10.2175 28.4838L10.2178 28.4837ZM7.01863 22.5868C7.01863 21.7248 7.53781 20.9467 8.33517 20.6164C9.13178 20.2869 10.0489 20.4692 10.6588 21.0791C11.2687 21.689 11.4517 22.6061 11.1214 23.4034C10.7912 24.2001 10.0139 24.72 9.15103 24.72C7.97285 24.72 7.01859 23.7649 7.01859 22.5868L7.01863 22.5868Z" fill="black"/>
<path d="M38.9337 8.39519V18.1413H41.0661L41.0669 8.39519C42.4183 8.04636 43.514 7.05785 43.9996 5.74883C44.4846 4.43975 44.2986 2.97604 43.5012 1.82975C42.7039 0.683563 41.3962 0 40.0001 0C38.604 0 37.2965 0.683544 36.499 1.82975C35.7016 2.97595 35.5157 4.43975 36.0007 5.74883C36.4864 7.05792 37.582 8.04636 38.9334 8.39519H38.9337ZM40.0003 2.1466C40.8631 2.1466 41.6404 2.66652 41.9707 3.46314C42.3009 4.26049 42.118 5.1776 41.508 5.78751C40.8981 6.39742 39.981 6.57966 39.1844 6.24941C38.3871 5.9199 37.8679 5.14189 37.8679 4.27902C37.8679 3.10158 38.8222 2.14658 40.0003 2.14658L40.0003 2.1466Z" fill="black"/>
<path d="M22.5871 13.4165C23.5303 13.4135 24.4459 13.0981 25.1912 12.5194C25.9358 11.9408 26.4676 11.1308 26.7034 10.2181H28.484C28.7667 10.2181 29.0382 10.3304 29.2382 10.5298C29.4383 10.7299 29.5506 11.0013 29.5506 11.284V18.1404H31.6831V11.284C31.6831 10.436 31.3461 9.62232 30.7459 9.02206C30.1464 8.42182 29.3327 8.08487 28.484 8.08487H26.7033C26.4355 7.0495 25.7892 6.15179 24.8907 5.57008C23.9921 4.98917 22.9085 4.76677 21.8538 4.94753C20.7991 5.12753 19.8514 5.69802 19.1977 6.54521C18.5439 7.39165 18.2322 8.45371 18.3245 9.51965C18.4167 10.5855 18.9061 11.5778 19.696 12.2993C20.4852 13.0215 21.5176 13.4202 22.5873 13.4165L22.5871 13.4165ZM22.5871 7.01821V7.01895C23.4499 7.01895 24.2272 7.53813 24.5575 8.33549C24.8878 9.1321 24.7056 10.0492 24.0956 10.6591C23.4857 11.269 22.5679 11.452 21.7713 11.1217C20.9747 10.7915 20.4547 10.0142 20.4547 9.15135C20.4547 7.97317 21.4098 7.01892 22.5872 7.01892L22.5871 7.01821Z" fill="black"/>
<path d="M57.4134 4.88658C56.4703 4.88955 55.5546 5.20493 54.8093 5.78359C54.0647 6.36228 53.5329 7.17228 53.2972 8.08492H51.5165C50.6678 8.08492 49.8541 8.42186 49.2546 9.02212C48.6543 9.62236 48.3174 10.4361 48.3174 11.284V18.1404H50.4498V11.284C50.4498 10.6949 50.9273 10.2182 51.5164 10.2182H53.2971C53.5649 11.2535 54.2112 12.1512 55.1097 12.7322C56.0083 13.3138 57.0919 13.5362 58.1466 13.3555C59.2014 13.1747 60.149 12.605 60.8027 11.7578C61.4565 10.9114 61.7682 9.84929 61.6759 8.78336C61.5837 7.71748 61.0943 6.72519 60.3044 6.00295C59.5152 5.28146 58.4828 4.88279 57.4131 4.8865L57.4134 4.88658ZM57.4134 11.2848V11.2841C56.5506 11.2841 55.7733 10.7649 55.443 9.96756C55.1127 9.17094 55.295 8.25384 55.9049 7.64395C56.5148 7.03405 57.4327 6.85105 58.2293 7.1813C59.0259 7.51155 59.5458 8.28882 59.5458 9.15169C59.5458 9.71699 59.3212 10.26 58.921 10.6594C58.5209 11.0596 57.9786 11.2842 57.4133 11.2842L57.4134 11.2848Z" fill="black"/>
<path d="M75.7217 35.7348C74.7778 35.7377 73.863 36.0531 73.1176 36.6318C72.3731 37.2105 71.8413 38.0205 71.6055 38.9331H61.8594V41.0655H71.6055V41.0663C71.8732 42.1017 72.5196 42.9994 73.4181 43.5803C74.3166 44.162 75.4003 44.3844 76.455 44.2036C77.5097 44.0228 78.4574 43.4531 79.1111 42.6059C79.7649 41.7595 80.0765 40.6974 79.9843 39.6315C79.8921 38.5656 79.4026 37.5733 78.6127 36.8518C77.8236 36.1296 76.7912 35.7309 75.7215 35.7346L75.7217 35.7348ZM75.7217 42.133V42.1323C74.8589 42.1323 74.0809 41.6131 73.7513 40.8157C73.4211 40.0191 73.6033 39.102 74.2132 38.4921C74.8231 37.8822 75.7402 37.6992 76.5376 38.0295C77.3342 38.3597 77.8541 39.137 77.8541 39.9999C77.8541 40.5652 77.6295 41.1081 77.2293 41.5076C76.8292 41.9077 76.2869 42.1323 75.7216 42.1323L75.7217 42.133Z" fill="black"/>
<path d="M71.9156 28.4837V26.7031C73.2671 26.3542 74.3628 25.3657 74.8483 24.0567C75.3333 22.7476 75.1473 21.2839 74.35 20.1376C73.5526 18.9913 72.245 18.3079 70.8488 18.3079C69.4527 18.3079 68.1452 18.9914 67.3477 20.1376C66.5503 21.2838 66.3644 22.7476 66.8494 24.0567C67.3351 25.3658 68.4307 26.3542 69.7821 26.7031V28.4837C69.7821 28.7664 69.6698 29.0379 69.4705 29.2379C69.2704 29.438 68.9989 29.5503 68.7163 29.5503H61.8599V31.6828H68.7163C69.5642 31.6828 70.3779 31.3458 70.9782 30.7456C71.5784 30.1461 71.9154 29.3323 71.9154 28.4836L71.9156 28.4837ZM68.7164 22.5868C68.7164 21.7248 69.2356 20.9467 70.033 20.6164C70.8296 20.2869 71.7467 20.4692 72.3566 21.0791C72.9665 21.689 73.1495 22.6061 72.8192 23.4034C72.489 24.2001 71.7117 24.72 70.8488 24.72C69.6714 24.72 68.7164 23.7649 68.7164 22.5868L68.7164 22.5868Z" fill="black"/>
<path d="M71.9154 53.2964V51.5158C71.9154 50.6671 71.5784 49.8534 70.9782 49.2538C70.3779 48.6536 69.5642 48.3167 68.7163 48.3167H61.8599V50.4491H68.7163C68.9989 50.4491 69.2704 50.5614 69.4705 50.7615C69.6698 50.9616 69.7821 51.2331 69.7821 51.5157V53.2963C68.4306 53.6452 67.3349 54.6337 66.8494 55.9427C66.3644 57.2518 66.5504 58.7155 67.3477 59.8618C68.1451 61.0081 69.4527 61.6915 70.8488 61.6915C72.245 61.6915 73.5525 61.008 74.35 59.8618C75.1474 58.7156 75.3333 57.2518 74.8483 55.9427C74.3626 54.6336 73.267 53.6452 71.9156 53.2963L71.9154 53.2964ZM70.8488 59.545C69.986 59.545 69.2087 59.0251 68.8784 58.2285C68.548 57.4319 68.7311 56.514 69.341 55.9041C69.9509 55.2942 70.868 55.112 71.6646 55.4422C72.462 55.7725 72.9811 56.5497 72.9811 57.4126C72.9811 57.9779 72.7565 58.5201 72.3564 58.9203C71.9569 59.3205 71.414 59.5451 70.8487 59.5451L70.8488 59.545Z" fill="black"/>
</svg>
