<svg width="40" height="40" viewBox="0 0 40 40" fill="none" xmlns="http://www.w3.org/2000/svg">
<path d="M19.792 39.9762C19.864 39.992 19.9279 40 19.9999 40C20.0718 40 20.1358 39.992 20.2078 39.9759C27.5025 38.0323 31.4779 32.6172 33.5253 28.4101C35.0531 25.2828 35.8609 21.6915 35.8609 18.0277V8.50151C35.8609 8.12558 35.5971 7.79751 35.2289 7.71751C35.1408 7.70144 26.1183 5.70994 20.5599 0.230993C20.2479 -0.0809997 19.7441 -0.0729697 19.4402 0.230993C13.8892 5.70197 4.86717 7.69342 4.77118 7.71751C4.40328 7.79751 4.13916 8.12558 4.13916 8.50151V18.0277C4.13916 21.691 4.94693 25.2823 6.47478 28.4101C8.52254 32.6173 12.4977 38.0323 19.7923 39.9759L19.792 39.9762ZM5.73832 18.0281V9.13344C7.88978 8.58945 14.9449 6.53404 19.9994 1.91071C25.0545 6.54175 32.1094 8.58951 34.2604 9.13344V18.0281C34.2604 21.4513 33.5085 24.8029 32.0928 27.706C30.2052 31.5694 26.5817 36.5363 19.9991 38.3677C13.4165 36.5359 9.79331 31.5691 7.91309 27.706C6.48938 24.7945 5.73747 21.4514 5.73747 18.0281H5.73832Z" fill="#FCFCFC"/>
<path d="M20.0002 29.9864C25.5033 29.9864 29.9823 25.5073 29.9823 20.0043C29.9823 14.5013 25.5032 10.0222 20.0002 10.0222C14.4972 10.0222 10.0181 14.5013 10.0181 20.0043C10.0181 25.5073 14.4972 29.9864 20.0002 29.9864ZM20.0002 11.6221C24.6232 11.6221 28.3825 15.3815 28.3825 20.0045C28.3825 24.6275 24.6232 28.3868 20.0002 28.3868C15.3772 28.3868 11.6179 24.6275 11.6179 20.0045C11.6179 15.3815 15.3772 11.6221 20.0002 11.6221V11.6221Z" fill="#FCFCFC"/>
<path d="M17.6086 23.5873C17.7606 23.7393 17.9604 23.8193 18.1763 23.8193C18.3923 23.8193 18.5921 23.7312 18.7441 23.5873L24.7828 17.5485C25.0948 17.2366 25.0948 16.7327 24.7828 16.4208C24.4708 16.1088 23.967 16.1088 23.655 16.4208L18.1841 21.8998L16.3603 20.076C16.0483 19.7641 15.5445 19.7641 15.2325 20.076C14.9205 20.388 14.9205 20.8918 15.2325 21.2038L17.6086 23.5873Z" fill="#FCFCFC"/>
</svg>
