<svg width="40" height="40" viewBox="0 0 40 40" fill="none" xmlns="http://www.w3.org/2000/svg">
<path d="M19.7777 14.6446C19.7777 14.0667 19.2888 13.5778 18.711 13.5778H5.37777C4.79991 13.5778 4.31104 14.0667 4.31104 14.6446C4.31104 15.2224 4.79994 15.7113 5.37777 15.7113H18.711C19.3335 15.711 19.7777 15.2221 19.7777 14.6446Z" fill="#FCFCFC"/>
<path d="M18.0446 19.7556C18.0446 19.1777 17.5557 18.6888 16.9778 18.6888L9.9559 18.6892C9.37803 18.6892 8.88916 19.1781 8.88916 19.7559C8.88916 20.3337 9.37806 20.8226 9.9559 20.8226H16.9781C17.6003 20.8223 18.0446 20.3334 18.0446 19.7556V19.7556Z" fill="#FCFCFC"/>
<path d="M28.4887 8.46682H1.06674C0.488869 8.46682 0 8.95572 0 9.53356C0 10.1114 0.488901 10.6003 1.06674 10.6003H28.5332C33.7331 10.6003 37.9109 14.8224 37.9109 19.978C37.9109 25.1336 33.6888 29.3557 28.5332 29.3557C25.0223 29.3557 21.8222 27.4001 20.1777 24.2891C20.0001 23.9335 19.6445 23.7112 19.2442 23.7112L13.778 23.7109C13.2001 23.7109 12.7112 24.1998 12.7112 24.7776C12.7112 25.3555 13.2001 25.8444 13.778 25.8444H18.5779C20.6225 29.3553 24.4 31.5332 28.489 31.5332C34.8443 31.4886 40 26.333 40 19.9778C40 13.6225 34.8444 8.46674 28.489 8.46674L28.4887 8.46682Z" fill="#FCFCFC"/>
<path d="M28.4885 12.4668C27.8663 12.4668 27.333 13 27.333 13.6223V20.1999V20.4222C27.333 20.5112 27.3773 20.5555 27.3773 20.6445C27.4217 20.6888 27.4217 20.7778 27.4663 20.8221C27.5106 20.8665 27.5553 20.9554 27.5996 20.9998L30.533 23.9331C30.7553 24.1554 31.0662 24.2887 31.3328 24.2887C31.6441 24.2887 31.9107 24.1554 32.1327 23.9331C32.5773 23.4886 32.5773 22.7331 32.1327 22.2888L29.5106 19.6667V13.6226C29.6439 13.0001 29.155 12.4669 28.4884 12.4669L28.4885 12.4668Z" fill="#FCFCFC"/>
</svg>
