<svg width="80" height="80" viewBox="0 0 80 80" fill="none" xmlns="http://www.w3.org/2000/svg">
<path d="M63.1195 32.3302C63.3132 32.444 63.5319 32.5004 63.7495 32.5004C63.9672 32.5004 64.1859 32.444 64.3796 32.3302L79.3795 23.5802C79.7645 23.3565 79.9995 22.9441 79.9995 22.5004V10.0005C79.9995 9.55687 79.7645 9.14448 79.3795 8.92071L64.3796 0.170763C63.9906 -0.0569211 63.5085 -0.0569211 63.1195 0.170763L48.1196 8.92071C47.7346 9.14448 47.4997 9.55687 47.4997 10.0005V22.5004C47.4997 22.9441 47.7346 23.3565 48.1196 23.5802L49.6123 24.4502L45.5738 26.804L40.6302 23.9201C40.2413 23.6924 39.7592 23.6924 39.3702 23.9201L34.4267 26.804L30.3871 24.4502L31.8798 23.5802C32.2649 23.3565 32.4998 22.9441 32.4998 22.5004V10.0005C32.4998 9.55687 32.2649 9.14448 31.8798 8.92071L16.8799 0.170763C16.491 -0.0569211 16.0088 -0.0569211 15.6199 0.170763L0.619967 8.92071C0.234927 9.14448 0 9.55687 0 10.0005V22.5004C0 22.9441 0.234927 23.3565 0.619967 23.5802L15.6199 32.3302C15.8135 32.444 16.0323 32.5004 16.2499 32.5004C16.4675 32.5004 16.6863 32.444 16.8799 32.3302L27.905 25.8988L31.9436 28.2526L24.3689 32.6712C23.985 32.8944 23.75 33.3068 23.75 33.7504V46.2503C23.75 46.694 23.985 47.1064 24.37 47.3301L25.8661 48.2029L21.8287 50.5577L16.879 47.6705C16.4901 47.4428 16.0079 47.4428 15.619 47.6705L0.619096 56.4204C0.235169 56.6442 0.000243049 57.0566 0.000243049 57.5002V70.0001C0.000243049 70.4438 0.23517 70.8562 0.620211 71.0799L15.6201 79.8299C15.8138 79.9437 16.0325 80.0001 16.2501 80.0001C16.4678 80.0001 16.6865 79.9437 16.8802 79.8299L31.8801 71.0799C32.2651 70.8562 32.5001 70.4438 32.5001 70.0001V57.5002C32.5001 57.0566 32.2651 56.6442 31.8801 56.4204L24.3104 52.0053L28.3478 49.6505L39.37 56.0807C39.5637 56.194 39.7824 56.2503 40.0001 56.2503C40.2177 56.2503 40.4364 56.194 40.6301 56.0801L51.6552 49.6488L55.6937 52.0026L48.119 56.4211C47.7351 56.6444 47.5002 57.0567 47.5002 57.5004V70.0003C47.5002 70.444 47.7351 70.8563 48.1202 71.0801L63.1201 79.8301C63.3137 79.9439 63.5325 80.0003 63.7501 80.0003C63.9677 80.0003 64.1865 79.9439 64.3801 79.8301L79.38 71.0801C79.7651 70.8563 80 70.444 80 70.0003V57.5004C80 57.0567 79.7651 56.6444 79.38 56.4206L64.3801 47.6706C63.9912 47.443 63.509 47.443 63.1201 47.6706L58.1765 50.5546L54.1376 48.2004L55.6303 47.3304C56.0153 47.1066 56.2502 46.6942 56.2502 46.2506V33.7507C56.2502 33.307 56.0153 32.8946 55.6303 32.6709L48.0556 28.2523L52.0941 25.8985L63.1195 32.3302ZM16.2498 2.69749L28.7699 9.99988L16.2498 17.3023L3.72974 9.99988L16.2498 2.69749ZM2.49988 12.1763L14.9998 19.4675V29.0735L2.49988 21.7822V12.1763ZM17.4998 29.0733V19.4674L29.9997 12.1761V21.7821L27.9049 23.0031L23.041 20.1694L21.781 22.3306L25.4221 24.4518L17.4998 29.0733ZM2.49988 59.676L14.9998 66.9673V76.5732L2.49988 69.282V59.676ZM17.4998 76.5731V66.9671L29.9997 59.6759V69.2818L17.4998 76.5731ZM16.2498 64.802L3.72974 57.4996L16.2498 50.1972L28.7699 57.4996L16.2498 64.802ZM49.9996 59.6759L62.4995 66.9671V76.5731L49.9996 69.2818V59.6759ZM64.9995 76.5729V66.967L77.4994 59.6757V69.2817L64.9995 76.5729ZM63.7495 50.1974L76.2696 57.4997L63.7495 64.8021L51.2295 57.4997L63.7495 50.1974ZM33.2068 43.9201L28.3459 46.7549L26.2493 45.5323V35.9264L38.7492 43.2176V52.8235L30.828 48.2024L34.468 46.0797L33.2068 43.9201ZM49.1725 48.2025L41.2489 52.8236V43.2177L53.7489 35.9264V45.5324L51.654 46.7534L46.7902 43.9197L45.5302 46.0809L49.1725 48.2025ZM39.9989 41.0524L27.4789 33.75L39.9989 26.4476L52.519 33.75L39.9989 41.0524ZM64.9988 29.0736V19.4677L77.4987 12.1764V21.7824L64.9988 29.0736ZM63.7488 2.69806L76.2689 10.0004L63.7488 17.3028L51.2287 10.0004L63.7488 2.69806ZM49.9989 21.7822V12.1763L62.4988 19.4675V29.0735L54.5753 24.4524L58.2164 22.3312L56.9564 20.17L52.0925 23.0037L49.9989 21.7822Z" fill="black"/>
</svg>
