<svg width="80" height="80" viewBox="0 0 80 80" fill="none" xmlns="http://www.w3.org/2000/svg">
<path d="M45.7926 52.4174L50.0612 48.2677L54.3733 48.2682C55.0635 48.2682 55.6232 47.7086 55.6232 47.0184C55.6232 46.3276 55.0635 45.7685 54.3733 45.7685H49.5552C49.2305 45.7696 48.9186 45.8974 48.6865 46.1245L44.0497 50.624C43.4214 51.3343 42.3546 51.4459 41.5935 50.8801C41.3681 50.643 41.2448 50.3266 41.2498 49.9991C41.2665 49.4757 41.4914 48.9808 41.8747 48.6242L45.4429 45.1559C45.9384 44.6744 45.9496 43.8826 45.468 43.3871C44.9865 42.8922 44.1947 42.881 43.6992 43.3625L42.4494 44.6124L38.4498 48.4993C37.7121 49.2118 36.575 49.3306 35.9936 48.7554H35.9942C35.737 48.5009 35.6025 48.1477 35.6254 47.7867C35.641 47.2633 35.8664 46.7679 36.2503 46.4119L40.3124 42.4626C40.8079 41.9811 40.8191 41.1893 40.3375 40.6938C39.856 40.1989 39.0642 40.1877 38.5687 40.6687L32.5008 46.5308C31.7632 47.2494 30.626 47.3621 30.0446 46.7869C29.8047 46.5453 29.6736 46.2155 29.6825 45.8746C29.6987 45.3512 29.9241 44.8563 30.3074 44.4997L36.5132 38.4691H36.5127C37.0081 37.9876 37.0193 37.1958 36.5378 36.7003C36.0562 36.2054 35.2645 36.1942 34.7695 36.6757L25.9452 45.2747C25.2075 45.9872 24.0704 46.106 23.489 45.5308H23.4896C23.2491 45.2886 23.118 44.9594 23.1269 44.6185C23.1425 44.0951 23.3679 43.5996 23.7518 43.2436L32.6007 34.6447C33.0962 34.1632 33.1074 33.3714 32.6258 32.8759C32.1443 32.3804 31.3525 32.3693 30.857 32.8508L22.0143 41.4564C21.6956 41.7639 21.4222 42.1154 21.2018 42.4999H15.0028C14.3126 42.4999 13.7529 43.0595 13.7529 43.7497C13.7529 44.4399 14.3126 44.9996 15.0028 44.9996H20.6272C20.7059 45.8817 21.0981 46.707 21.7331 47.3241C22.4691 48.0237 23.4495 48.4076 24.4644 48.3931C25.563 48.3837 26.622 47.9825 27.4512 47.2616C27.6404 47.7565 27.9344 48.2045 28.3138 48.5739C29.0492 49.2736 30.0297 49.6575 31.0445 49.643C31.8385 49.6341 32.6158 49.4187 33.301 49.0181C33.4852 49.5688 33.7982 50.0676 34.2133 50.4738C34.9482 51.174 35.9291 51.5579 36.944 51.5423C37.6153 51.5373 38.277 51.3838 38.8812 51.0926C39.0626 51.6857 39.3918 52.2236 39.8376 52.655C40.5736 53.3686 41.5623 53.7614 42.5873 53.7486C43.7881 53.7374 44.9375 53.2604 45.7928 52.4173L45.7926 52.4174Z" fill="black"/>
<path d="M18.7524 26.2513C18.7524 26.5828 18.8841 26.9008 19.1185 27.1352C19.3528 27.3695 19.6709 27.5012 20.0023 27.5012H38.7503L44.281 32.6881C45.0873 33.4441 45.2686 34.6627 44.6811 35.3502C44.2776 35.8507 43.6946 36.1738 43.0562 36.2502C42.76 36.2765 42.4676 36.1716 42.2561 35.9629L37.7756 32.2697C37.5195 32.0571 37.1897 31.9556 36.8588 31.9874C36.5279 32.0192 36.2233 32.181 36.0118 32.4376C35.8009 32.6949 35.701 33.0252 35.7339 33.3555C35.7669 33.6864 35.9303 33.9905 36.1881 34.2003L40.5627 37.8126C41.2188 38.4242 42.0848 38.7595 42.981 38.75H43.1997C44.5121 38.634 45.7229 37.9968 46.562 36.9812C48.0055 35.2817 47.7433 32.5381 45.9371 30.8759L40.0437 25.3452C39.8206 25.1326 39.5271 25.0104 39.2191 25.0015H20.0025C19.3123 25.0015 18.7527 25.5611 18.7527 26.2513H18.7524Z" fill="black"/>
<path d="M44.9995 26.2513C44.9995 26.5828 45.1312 26.9008 45.3655 27.1352C45.5999 27.3695 45.9179 27.5012 46.2494 27.5012H59.9979C60.6881 27.5012 61.2478 26.9415 61.2478 26.2513C61.2478 25.5611 60.6881 25.0015 59.9979 25.0015H46.2494C45.5592 25.0015 44.9995 25.5611 44.9995 26.2513Z" fill="black"/>
<path d="M43.7494 20.0022C44.0808 20.0022 44.3989 19.8705 44.6332 19.6362C44.8676 19.4018 44.9992 19.0838 44.9992 18.7523V5.00381H72.7148C73.111 6.12479 74.0155 6.99131 75.1526 7.33956C76.2892 7.68717 77.524 7.4757 78.4798 6.76874C79.4356 6.06123 79.9998 4.94308 79.9998 3.75407C79.9998 2.56505 79.4357 1.44689 78.4798 0.739391C77.524 0.0324381 76.2892 -0.179039 75.1526 0.168581C74.0154 0.516758 73.1109 1.38329 72.7148 2.50433H43.7494C43.0592 2.50433 42.4995 3.06398 42.4995 3.7542V18.7526C42.4995 19.084 42.6312 19.4021 42.8655 19.6364C43.0999 19.8708 43.4179 20.0025 43.7494 20.0025V20.0022Z" fill="black"/>
<path d="M52.4988 21.252V12.503H58.9668C59.3629 13.6239 60.2674 14.4905 61.4045 14.8387C62.5411 15.1863 63.776 14.9748 64.7317 14.2679C65.6875 13.5604 66.2517 12.4422 66.2517 11.2532C66.2517 10.0642 65.6876 8.94603 64.7317 8.23854C63.7759 7.53158 62.5411 7.32011 61.4045 7.66773C60.2674 8.0159 59.3629 8.88244 58.9668 10.0035H51.2489C50.5587 10.0035 49.999 10.5631 49.999 11.2533V21.2523C49.999 21.9425 50.5587 22.5021 51.2489 22.5021C51.9391 22.5021 52.4988 21.9425 52.4988 21.2523V21.252Z" fill="black"/>
<path d="M3.75379 7.50351C4.52827 7.50239 5.28377 7.26191 5.91599 6.81441C6.54818 6.36636 7.02636 5.73417 7.2847 5.00375H35.0003V18.7523C35.0003 19.4425 35.56 20.0021 36.2502 20.0021C36.9404 20.0021 37.5 19.4425 37.5 18.7523V3.75388C37.5 3.42245 37.3683 3.10439 37.134 2.87005C36.8996 2.6357 36.5816 2.50402 36.2502 2.50402H7.2847C6.97782 1.63525 6.36126 0.910472 5.55389 0.466805C4.74594 0.0237671 3.8035 -0.10679 2.90574 0.100216C2.00852 0.30778 1.21849 0.838423 0.686694 1.59063C0.155494 2.34333 -0.0805245 3.26516 0.0243786 4.18078C0.129279 5.09585 0.567292 5.94059 1.25528 6.55324C1.94326 7.16646 2.83268 7.50459 3.75387 7.50347L3.75379 7.50351Z" fill="black"/>
<path d="M28.7509 22.5017C29.0823 22.5017 29.4004 22.37 29.6347 22.1356C29.869 21.9013 30.0007 21.5832 30.0007 21.2518V11.2529C30.0007 10.9214 29.8691 10.6034 29.6347 10.369C29.4004 10.1347 29.0823 10.003 28.7509 10.003H21.033C20.6368 8.88201 19.7323 8.01549 18.5952 7.66724C17.4586 7.31962 16.2238 7.53109 15.268 8.23805C14.3122 8.94556 13.748 10.0637 13.748 11.2527C13.748 12.4417 14.3122 13.5599 15.268 14.2674C16.2238 14.9744 17.4586 15.1858 18.5952 14.8382C19.7324 14.49 20.6369 13.6235 21.033 12.5025H27.501V21.2515C27.501 21.583 27.6327 21.901 27.867 22.1354C28.1014 22.3697 28.4194 22.5014 28.7509 22.5014V22.5017Z" fill="black"/>
<path d="M24.376 35.0007C24.376 34.6693 24.2443 34.3512 24.01 34.1169C23.7756 33.8825 23.4576 33.7508 23.1262 33.7508H6.25368V23.5332C7.37466 23.1371 8.24119 22.2326 8.58943 21.0955C8.93705 19.9589 8.72558 18.724 8.01862 17.7683C7.31111 16.8125 6.19296 16.2483 5.00395 16.2483C3.81493 16.2483 2.69676 16.8124 1.98927 17.7683C1.28232 18.7241 1.07084 19.9589 1.41846 21.0955C1.76664 22.2326 2.63317 23.1371 3.75421 23.5332V35.0007C3.75421 35.3321 3.88589 35.6502 4.12024 35.8845C4.35459 36.1189 4.67264 36.2506 5.00407 36.2506H23.1278C23.4593 36.2506 23.7773 36.1189 24.0117 35.8845C24.246 35.6502 24.3777 35.3321 24.3777 35.0007H24.376Z" fill="black"/>
<path d="M74.996 16.2524C73.8098 16.2563 72.6956 16.821 71.9913 17.7751C71.2872 18.7293 71.0757 19.9608 71.4211 21.0951C71.767 22.2294 72.6291 23.1338 73.7461 23.5328V33.7504H52.4984C51.8082 33.7504 51.2485 34.3101 51.2485 35.0003C51.2485 35.6905 51.8082 36.2502 52.4984 36.2502H74.996C75.3274 36.2502 75.6455 36.1185 75.8798 35.8841C76.1142 35.6498 76.2459 35.3317 76.2459 35.0003V23.5328C77.3629 23.1338 78.2249 22.2294 78.5709 21.0951C78.9163 19.9607 78.7048 18.7293 78.0006 17.7751C77.2965 16.821 76.1823 16.2563 74.996 16.2524H74.996Z" fill="black"/>
<path d="M76.2462 72.4965C75.4718 72.4976 74.7163 72.7381 74.084 73.1856C73.4518 73.6337 72.9737 74.2659 72.7153 74.9963H44.9997V57.4982C44.9997 56.8079 44.4401 56.2483 43.7499 56.2483C43.0597 56.2483 42.5 56.8079 42.5 57.4982V76.2461C42.5 76.5776 42.6317 76.8956 42.866 77.13C43.1004 77.3643 43.4184 77.496 43.7499 77.496H72.7153C73.0222 78.3648 73.6388 79.0896 74.4461 79.5332C75.2541 79.9763 76.1965 80.1068 77.0943 79.8998C77.9915 79.6923 78.7815 79.1616 79.3133 78.4094C79.8445 77.6567 80.0806 76.7349 79.9757 75.8192C79.8708 74.9042 79.4327 74.0594 78.7448 73.4468C78.0568 72.8336 77.1674 72.4954 76.2462 72.4966L76.2462 72.4965Z" fill="black"/>
<path d="M51.2489 52.4988C50.5587 52.4988 49.999 53.0584 49.999 53.7486V68.747C49.999 69.0785 50.1307 69.3965 50.3651 69.6309C50.5994 69.8652 50.9175 69.9969 51.2489 69.9969H58.9668C59.3629 71.1179 60.2674 71.9844 61.4045 72.3327C62.5411 72.6803 63.776 72.4688 64.7317 71.7618C65.6875 71.0543 66.2517 69.9362 66.2517 68.7472C66.2517 67.5581 65.6876 66.44 64.7317 65.7325C63.7759 65.0255 62.5411 64.8141 61.4045 65.1617C60.2674 65.5099 59.3629 66.3764 58.9668 67.4974H52.4988V53.7489C52.4988 53.4175 52.3671 53.0994 52.1327 52.8651C51.8984 52.6307 51.5803 52.499 51.2489 52.499V52.4988Z" fill="black"/>
<path d="M36.2504 56.2483C35.5602 56.2483 35.0005 56.808 35.0005 57.4982V74.9963H7.28493C6.88878 73.8753 5.98429 73.0088 4.84719 72.6605C3.7106 72.3129 2.47573 72.5244 1.51998 73.2314C0.564168 73.9389 0 75.057 0 76.246C0 77.435 0.564111 78.5532 1.51998 79.2607C2.47579 79.9677 3.7106 80.1791 4.84719 79.8315C5.98434 79.4833 6.88883 78.6168 7.28493 77.4958H36.2504C36.5818 77.4958 36.8999 77.3641 37.1342 77.1297C37.3686 76.8954 37.5003 76.5773 37.5003 76.2459V57.4979C37.5003 57.1665 37.3686 56.8484 37.1342 56.6141C36.8999 56.3797 36.5818 56.248 36.2504 56.248V56.2483Z" fill="black"/>
<path d="M21.0335 69.9969H28.7514C29.0828 69.9969 29.4008 69.8652 29.6352 69.6309C29.8695 69.3965 30.0012 69.0785 30.0012 68.747V53.7486C30.0012 53.0584 29.4416 52.4988 28.7514 52.4988C28.0611 52.4988 27.5015 53.0584 27.5015 53.7486V67.4972H21.0335C20.6373 66.3762 19.7328 65.5097 18.5957 65.1614C17.4591 64.8138 16.2243 65.0253 15.2685 65.7322C14.3127 66.4397 13.7485 67.5579 13.7485 68.7469C13.7485 69.9359 14.3126 71.0541 15.2685 71.7616C16.2243 72.4685 17.4591 72.68 18.5957 72.3324C19.7329 71.9842 20.6374 71.1177 21.0335 69.9966V69.9969Z" fill="black"/>
<path d="M10.0031 44.9995C10.6933 44.9995 11.2529 44.4398 11.2529 43.7496C11.2529 43.0594 10.6933 42.4998 10.0031 42.4998H5.00359C4.31338 42.4998 3.75372 43.0594 3.75372 43.7496V56.467C2.63274 56.8631 1.76622 57.7676 1.41797 58.9047C1.07035 60.0413 1.28182 61.2762 1.98878 62.2319C2.69629 63.1877 3.81444 63.7519 5.00346 63.7519C6.19247 63.7519 7.31064 63.1878 8.01814 62.2319C8.72509 61.2761 8.93657 60.0413 8.58895 58.9047C8.24077 57.7676 7.37423 56.8631 6.2532 56.467V44.9995H10.0031Z" fill="black"/>
<path d="M71.2466 59.9976C71.2455 60.9188 71.5836 61.8082 72.1969 62.4962C72.8095 63.1841 73.6543 63.6222 74.5693 63.7271C75.485 63.832 76.4067 63.5959 77.1595 63.0647C77.9116 62.533 78.4423 61.7429 78.6499 60.8457C78.8569 59.9479 78.7263 59.0055 78.2833 58.1975C77.8397 57.3902 77.1149 56.7736 76.2461 56.4667V43.7494C76.2461 43.4179 76.1144 43.0999 75.88 42.8655C75.6457 42.6312 75.3276 42.4995 74.9962 42.4995H64.9973C64.6608 42.499 64.3389 42.6345 64.1034 42.8745L61.3476 45.6806H59.3729C58.6827 45.6806 58.123 46.2403 58.123 46.9305C58.123 47.6207 58.6827 48.1803 59.3729 48.1803H61.8726C62.2091 48.1803 62.5311 48.0453 62.7665 47.8054L65.5224 44.9992H73.7463V56.4667C73.016 56.7251 72.3838 57.2033 71.9357 57.8354C71.4882 58.4676 71.2477 59.2231 71.2466 59.9976L71.2466 59.9976Z" fill="black"/>
</svg>
