<svg width="80" height="80" viewBox="0 0 80 80" fill="none" xmlns="http://www.w3.org/2000/svg">
<path d="M0 77.4802H80V79.9999H0V77.4802Z" fill="black"/>
<path d="M7.05518 52.7871H9.57488V78.7401H7.05518V52.7871Z" fill="black"/>
<path d="M19.7788 36.7878H22.2985V78.7417H19.7788V36.7878Z" fill="black"/>
<path d="M32.5039 49.1343H35.0236V78.7401H32.5039V49.1343Z" fill="black"/>
<path d="M45.2295 33.1333H47.7492V78.74H45.2295V33.1333Z" fill="black"/>
<path d="M8.31529 54.0483C5.54362 54.0483 3.27588 51.7806 3.27588 49.0089C3.27588 46.2372 5.54362 43.9695 8.31529 43.9695C11.087 43.9695 13.3547 46.2372 13.3547 49.0089C13.3547 51.7806 11.087 54.0483 8.31529 54.0483ZM8.31529 46.4892C6.92945 46.4892 5.79559 47.6231 5.79559 49.0089C5.79559 50.3947 6.92945 51.5286 8.31529 51.5286C9.70113 51.5286 10.835 50.3947 10.835 49.0089C10.835 47.6231 9.70113 46.4892 8.31529 46.4892Z" fill="black"/>
<path d="M21.0404 38.0476C18.2687 38.0476 16.001 35.7798 16.001 33.0082C16.001 30.2365 18.2687 27.9688 21.0404 27.9688C23.8121 27.9688 26.0798 30.2365 26.0798 33.0082C26.0798 35.7798 23.8121 38.0476 21.0404 38.0476ZM21.0404 30.4885C19.6546 30.4885 18.5207 31.6223 18.5207 33.0082C18.5207 34.394 19.6546 35.5279 21.0404 35.5279C22.4262 35.5279 23.5601 34.394 23.5601 33.0082C23.5601 31.6223 22.4262 30.4885 21.0404 30.4885Z" fill="black"/>
<path d="M33.764 50.3943C30.9923 50.3943 28.7246 48.1265 28.7246 45.3548C28.7246 42.5832 30.9923 40.3154 33.764 40.3154C36.5357 40.3154 38.8034 42.5832 38.8034 45.3548C38.6775 48.1265 36.5357 50.3943 33.764 50.3943ZM33.764 42.8351C32.3782 42.8351 31.2443 43.969 31.2443 45.3548C31.2443 46.7407 32.3782 47.8746 33.764 47.8746C35.1499 47.8746 36.2837 46.7407 36.2837 45.3548C36.2837 43.969 35.1499 42.8351 33.764 42.8351Z" fill="black"/>
<path d="M46.3627 34.3947C43.591 34.3947 41.3232 32.127 41.3232 29.3553C41.3232 26.5837 43.591 24.3159 46.3627 24.3159C49.1343 24.3159 51.4021 26.5837 51.4021 29.3553C51.4021 32.127 49.1343 34.3947 46.3627 34.3947ZM46.3627 26.8356C44.9768 26.8356 43.8429 27.9695 43.8429 29.3553C43.8429 30.7412 44.9768 31.875 46.3627 31.875C47.7485 31.875 48.8824 30.7412 48.8824 29.3553C49.0084 27.9695 47.8745 26.8356 46.3627 26.8356Z" fill="black"/>
<path d="M57.8281 46.6145H60.3478V78.7401H57.8281V46.6145Z" fill="black"/>
<path d="M70.5518 30.6135H73.0715V78.7399H70.5518V30.6135Z" fill="black"/>
<path d="M17.7964 35.2659L19.7913 36.8048L11.9436 46.9798L9.94873 45.4409L17.7964 35.2659Z" fill="black"/>
<path d="M49.7549 31.3582L57.1358 39.4611L55.273 41.1579L47.8921 33.055L49.7549 31.3582Z" fill="black"/>
<path d="M43.0957 31.584L45.089 33.1256L37.2272 43.2905L35.2339 41.7489L43.0957 31.584Z" fill="black"/>
<path d="M68.4784 29.05L70.4694 30.5946L62.5931 40.7487L60.6021 39.2042L68.4784 29.05Z" fill="black"/>
<path d="M24.5606 34.8611L31.7766 42.0771L29.9948 43.8589L22.7788 36.6429L24.5606 34.8611Z" fill="black"/>
<path d="M59.0863 47.8745C56.3146 47.8745 54.0469 45.6067 54.0469 42.8351C54.0469 40.0634 56.3146 37.7957 59.0863 37.7957C61.858 37.7957 64.1257 40.0634 64.1257 42.8351C64.1257 45.6067 61.858 47.8745 59.0863 47.8745ZM59.0863 40.3154C57.7005 40.3154 56.5666 41.4492 56.5666 42.8351C56.5666 44.2209 57.7005 45.3548 59.0863 45.3548C60.4721 45.3548 61.606 44.2209 61.606 42.8351C61.606 41.4492 60.4721 40.3154 59.0863 40.3154Z" fill="black"/>
<path d="M71.8119 31.875C69.0402 31.875 66.7725 29.6072 66.7725 26.8356C66.7725 24.0639 69.0402 21.7961 71.8119 21.7961C74.5836 21.7961 76.8513 24.0639 76.8513 26.8356C76.8513 29.6072 74.5836 31.875 71.8119 31.875ZM71.8119 24.3159C70.426 24.3159 69.2922 25.4497 69.2922 26.8356C69.2922 28.2214 70.426 29.3553 71.8119 29.3553C73.1977 29.3553 74.3316 28.2214 74.3316 26.8356C74.3316 25.4497 73.1977 24.3159 71.8119 24.3159Z" fill="black"/>
</svg>
