<svg width="80" height="80" viewBox="0 0 80 80" fill="none" xmlns="http://www.w3.org/2000/svg">
<path d="M40.0006 19.9988C28.9733 19.9988 20.0005 28.971 20.0005 39.9989C20.0005 51.0268 28.9727 59.999 40.0006 59.999C51.0285 59.999 60.0007 51.0268 60.0007 39.9989C60.0007 28.971 51.0285 19.9988 40.0006 19.9988ZM40.0006 57.4976C30.351 57.4976 22.5005 49.6477 22.5005 39.9975C22.5005 30.3473 30.3504 22.4974 40.0006 22.4974C49.6508 22.4974 57.5007 30.3473 57.5007 39.9975C57.5007 49.6477 49.6508 57.4976 40.0006 57.4976Z" fill="black"/>
<path d="M48.7506 36.2491C48.7506 33.4918 46.5084 31.249 43.7506 31.249V29.999C43.7506 29.3093 43.192 28.749 42.5006 28.749C41.8091 28.749 41.2505 29.3087 41.2505 29.999V31.249H38.7505V29.999C38.7505 29.3093 38.1919 28.749 37.5005 28.749C36.8091 28.749 36.2505 29.3087 36.2505 29.999V31.249H32.5005C31.8091 31.249 31.2505 31.8088 31.2505 32.499C31.2505 33.1888 31.8091 33.7491 32.5005 33.7491H33.7505V46.2486H32.5005C31.8091 46.2486 31.2505 46.8083 31.2505 47.4986C31.2505 48.1883 31.8091 48.7486 32.5005 48.7486H36.2505V49.9986C36.2505 50.6883 36.8091 51.2486 37.5005 51.2486C38.1919 51.2486 38.7505 50.6889 38.7505 49.9986V48.7486H41.2505V49.9986C41.2505 50.6883 41.8091 51.2486 42.5006 51.2486C43.192 51.2486 43.7506 50.6889 43.7506 49.9986V48.7486C46.5079 48.7486 48.7506 46.5064 48.7506 43.7485C48.7506 42.2485 48.0731 40.9159 47.0229 39.9985C48.0725 39.0817 48.7506 37.7491 48.7506 36.2491V36.2491ZM46.2506 43.7491C46.2506 45.128 45.1284 46.2491 43.7506 46.2491H36.2505V41.2491H43.7506C45.1278 41.2491 46.2506 42.3702 46.2506 43.7491ZM36.2505 38.7491V33.7491H43.7506C45.1278 33.7491 46.2506 34.8702 46.2506 36.2491C46.2506 37.628 45.1284 38.7491 43.7506 38.7491H36.2505Z" fill="black"/>
<path d="M74.9992 34.9976C72.6767 34.9976 70.7358 36.5975 70.1784 38.7488H64.9356C64.6393 32.8 62.2643 27.4027 58.5099 23.2558L62.2225 19.5448C62.9814 19.9935 63.8436 20.2513 64.7488 20.2513C66.0836 20.2513 67.3375 19.7312 68.2812 18.7887C70.2299 16.84 70.2309 13.6675 68.2834 11.7149C66.3962 9.82594 63.1048 9.82494 61.2097 11.7161C59.5697 13.3584 59.3297 15.8612 60.4547 17.777L56.7421 21.4895C52.5959 17.7357 47.1984 15.3612 41.2491 15.0648L41.2497 9.82263C43.401 9.26402 44.9997 7.32261 44.9997 5.00003C44.9997 2.24273 42.7576 0 39.9997 0C37.2424 0 34.9997 2.24216 34.9997 5.00003C34.9997 7.32261 36.5984 9.26348 38.7497 9.82263V15.0638C32.7999 15.3601 27.4036 17.7351 23.2567 21.4885L19.5441 17.7775C20.6691 15.8612 20.4292 13.3589 18.788 11.7166C17.8432 10.773 16.5883 10.2518 15.2517 10.2518C13.9168 10.2518 12.6607 10.7719 11.7154 11.7166C9.76665 13.6664 9.76665 16.8388 11.7165 18.7875C12.6601 19.7312 13.9152 20.2513 15.2517 20.2513C16.1579 20.2513 17.0178 19.994 17.778 19.5465L21.489 23.2575C17.734 27.4036 15.3607 32.8011 15.0632 38.7504H9.82206C9.26345 36.5997 7.32375 34.9987 5.00231 34.9987C2.24616 34.9987 0.00114286 37.2426 0 40.001C0.00111601 42.7572 2.24616 44.9982 5.00231 44.9982C7.32375 44.9982 9.26348 43.3994 9.82206 41.2481H15.0632C15.3584 47.1969 17.7345 52.5942 21.488 56.7411L17.767 60.4638C15.8635 59.3902 13.2982 59.6262 11.7145 61.2099C9.76577 63.1587 9.76577 66.3311 11.7156 68.2847C12.6604 69.2272 13.9153 69.7457 15.2491 69.7457C16.585 69.7457 17.8416 69.2256 18.7865 68.2808C19.7302 67.3372 20.2502 66.0811 20.2502 64.7445C20.2491 63.8383 19.993 62.9795 19.5454 62.2194L23.2553 58.5083C27.4015 62.2634 32.7999 64.6384 38.7497 64.9341V70.1753C36.5984 70.7339 34.9997 72.6753 34.9997 74.9979C34.9997 77.7552 37.2418 79.9979 39.9997 79.9979C42.757 79.9979 44.9997 77.7557 44.9997 74.9979C44.9997 72.6753 43.401 70.7344 41.2497 70.1753L41.2502 64.9347C47.2 64.6383 52.5963 62.2634 56.7432 58.5099L60.4558 62.2209C59.3308 64.1361 59.5707 66.6395 61.213 68.2818C62.1567 69.2255 63.4128 69.7455 64.7482 69.7455C66.083 69.7455 67.3392 69.2255 68.2845 68.2818C70.2342 66.3331 70.2342 63.1597 68.2845 61.2109C67.3397 60.2673 66.0848 59.7472 64.7494 59.7472C63.842 59.7472 62.9821 60.0045 62.222 60.4537L58.511 56.7427C62.266 52.5953 64.6393 47.198 64.9368 41.2497H70.178C70.7377 43.3999 72.678 44.9986 74.9988 44.9997C77.755 44.9997 79.9989 42.7576 80 39.9997C80.0011 37.2424 77.7573 34.9985 75 34.9985L74.9992 34.9976ZM62.9796 13.4818C63.4523 13.0091 64.0806 12.7491 64.7498 12.7491C65.4172 12.7491 66.045 13.0091 66.5159 13.4801C67.4897 14.4561 67.4897 16.0437 66.5148 17.0187C65.5723 17.9635 63.9249 17.9584 62.9814 17.0187C62.0059 16.0432 62.0048 14.4557 62.9797 13.4818L62.9796 13.4818ZM37.4995 4.99958C37.4995 3.62068 38.6206 2.49957 39.9995 2.49957C41.3767 2.49957 42.4995 3.62068 42.4995 4.99958C42.4995 6.37849 41.3773 7.4996 39.9995 7.4996C38.6206 7.4996 37.4995 6.37849 37.4995 4.99958ZM13.4836 17.0181C12.5098 16.0432 12.5087 14.4566 13.4825 13.4818C13.9552 13.0108 14.5835 12.7491 15.2515 12.7491C15.9201 12.7491 16.5478 13.0091 17.0205 13.4818C17.9943 14.4567 17.9932 16.0415 17.0194 17.0181C16.0735 17.9617 14.429 17.9617 13.4837 17.0181H13.4836ZM5.00144 42.4982C3.6214 42.4982 2.50028 41.3782 2.49914 40.0005C2.50025 38.6205 3.62136 37.4982 5.00144 37.4982C6.37756 37.4982 7.49916 38.6221 7.50031 39.9994C7.50031 41.3783 6.3792 42.4982 5.00144 42.4982ZM17.0199 66.5141C16.0763 67.4577 14.4239 67.4566 13.4836 66.5163C12.5087 65.5403 12.5087 63.9516 13.4825 62.9777C13.9535 62.5067 14.5813 62.2467 15.2487 62.2467C15.9172 62.2467 16.5461 62.5067 17.0188 62.9794C17.4915 63.4504 17.7515 64.0782 17.7515 64.7467C17.751 65.4152 17.4915 66.043 17.0199 66.514V66.5141ZM42.5001 74.9991C42.5001 76.378 41.3779 77.4991 40.0001 77.4991C38.6212 77.4991 37.5 76.378 37.5 74.9991C37.5 73.6202 38.6212 72.4991 40.0001 72.4991C41.3773 72.4991 42.5001 73.6202 42.5001 74.9991ZM66.5174 62.9795C67.4911 63.9544 67.4911 65.5409 66.5174 66.5158C65.5737 67.4594 63.9263 67.4594 62.981 66.5158C62.0073 65.5409 62.0073 63.9561 62.981 62.9806C63.4537 62.508 64.0809 62.2479 64.7501 62.2479C65.4175 62.2485 66.0447 62.508 66.5174 62.9795V62.9795ZM40.0001 62.4996C27.5954 62.4996 17.5028 52.4085 17.4999 40.0037C17.4999 40.0026 17.501 40.0015 17.501 39.9987C17.501 39.9965 17.4999 39.9965 17.4999 39.9937C17.5038 27.5902 27.5948 17.4993 40.0001 17.4993C52.4058 17.4993 62.5002 27.5925 62.5002 39.9994C62.5002 52.4052 52.4064 62.4995 40.0001 62.4995V62.4996ZM74.9988 42.4994L74.9977 43.7495L74.9988 42.4994C73.6199 42.4994 72.5 41.3783 72.4988 39.9994C72.4988 38.6205 73.6199 37.4994 74.9988 37.4983C76.3777 37.4983 77.5 38.6205 77.5 39.9983C77.4989 41.3778 76.3761 42.4994 74.9988 42.4994Z" fill="black"/>
</svg>
