<svg width="325" height="325" viewBox="0 0 325 325" fill="none" xmlns="http://www.w3.org/2000/svg">
<path d="M27.7709 84.7141L162.5 6.9282L297.229 84.7141V240.286L162.5 318.072L27.7709 240.286V84.7141Z" stroke="black" stroke-width="12" stroke-miterlimit="4.13936" stroke-linecap="round" stroke-linejoin="round"/>
<path d="M67 88.5L162.25 33.5074L162.25 143.493L67 88.5Z" fill="black"/>
<path d="M257 88.5L161.75 143.493L161.75 33.5074L257 88.5Z" fill="black"/>
<path d="M66.9926 127.75L162.243 182.743L66.9926 237.735L66.9926 127.75Z" fill="black"/>
<path d="M161.993 292.295L66.7427 237.302L161.993 182.31L161.993 292.295Z" fill="black"/>
<path d="M256.993 127.75L256.993 237.735L161.743 182.743L256.993 127.75Z" fill="black"/>
<path d="M161.993 292.295L161.993 182.31L257.243 237.302L161.993 292.295Z" fill="black"/>
</svg>
