<svg width="1440" height="806" viewBox="0 0 1440 806" fill="none" xmlns="http://www.w3.org/2000/svg">
<g clip-path="url(#clip0_62_3902)">
<rect width="1440" height="806" fill="#132039"/>
<path d="M621.038 522.604L674.993 553.755V616.056L621.038 584.905V522.604ZM675.493 552.889L621.538 521.738L675.493 490.587L729.447 521.738L675.493 552.889ZM675.993 553.755L729.947 522.604V584.905L675.993 616.056V553.755Z" fill="#132039" stroke="#3A547A"/>
<circle cx="675.493" cy="553.714" r="2.47875" fill="#132039"/>
<circle cx="675.493" cy="490.258" r="2.47875" fill="#132039"/>
<circle cx="730.521" cy="521.986" r="2.47875" fill="#132039"/>
<circle cx="730.521" cy="584.946" r="2.47875" fill="#132039"/>
<circle cx="675.493" cy="617.17" r="2.47875" fill="#132039"/>
<circle cx="620.465" cy="584.946" r="2.47875" fill="#132039"/>
<circle cx="620.465" cy="521.986" r="2.47875" fill="#132039"/>
<path d="M855.038 723.604L908.993 754.755V817.056L855.038 785.905V723.604ZM909.493 753.889L855.538 722.738L909.493 691.587L963.447 722.738L909.493 753.889ZM909.993 754.755L963.947 723.604V785.905L909.993 817.056V754.755Z" fill="#132039" stroke="#3A547A"/>
<circle cx="909.493" cy="754.714" r="2.47875" fill="#132039"/>
<circle cx="909.493" cy="691.258" r="2.47875" fill="#132039"/>
<circle cx="964.521" cy="722.986" r="2.47875" fill="#132039"/>
<circle cx="964.521" cy="785.946" r="2.47875" fill="#132039"/>
<circle cx="854.465" cy="785.946" r="2.47875" fill="#132039"/>
<circle cx="854.465" cy="722.986" r="2.47875" fill="#132039"/>
<path d="M387.038 321.604L440.993 352.755V415.056L387.038 383.905V321.604ZM441.493 351.889L387.538 320.738L441.493 289.587L495.447 320.738L441.493 351.889ZM441.993 352.755L495.947 321.604V383.905L441.993 415.056V352.755Z" fill="#132039" stroke="#3A547A"/>
<circle cx="441.493" cy="352.714" r="2.47875" fill="#132039"/>
<circle cx="441.493" cy="289.258" r="2.47875" fill="#132039"/>
<circle cx="496.521" cy="320.986" r="2.47875" fill="#132039"/>
<circle cx="496.521" cy="383.946" r="2.47875" fill="#132039"/>
<circle cx="441.493" cy="416.17" r="2.47875" fill="#132039"/>
<circle cx="386.465" cy="383.946" r="2.47875" fill="#132039"/>
<circle cx="386.465" cy="320.986" r="2.47875" fill="#132039"/>
<path d="M153.038 120.604L206.993 151.755V214.056L153.038 182.905V120.604ZM207.493 150.889L153.538 119.738L207.493 88.5873L261.447 119.738L207.493 150.889ZM207.993 151.755L261.947 120.604V182.905L207.993 214.056V151.755Z" fill="#132039" stroke="#3A547A"/>
<circle cx="207.493" cy="151.714" r="2.47875" fill="#132039"/>
<circle cx="207.493" cy="88.2578" r="2.47875" fill="#132039"/>
<circle cx="262.521" cy="119.986" r="2.47875" fill="#132039"/>
<circle cx="262.521" cy="182.946" r="2.47875" fill="#132039"/>
<circle cx="207.493" cy="215.17" r="2.47875" fill="#132039"/>
<circle cx="152.465" cy="182.946" r="2.47875" fill="#132039"/>
<circle cx="152.465" cy="119.986" r="2.47875" fill="#132039"/>
<path d="M738.052 522.825L792.007 553.976V616.277L738.052 585.126V522.825ZM792.507 553.11L738.552 521.959L792.507 490.808L846.461 521.959L792.507 553.11ZM793.007 553.976L846.961 522.825V585.126L793.007 616.277V553.976Z" fill="#132039" stroke="#3A547A"/>
<circle cx="792.507" cy="553.935" r="2.47875" fill="#132039"/>
<circle cx="792.507" cy="490.479" r="2.47875" fill="#132039"/>
<circle cx="847.535" cy="522.207" r="2.47875" fill="#132039"/>
<circle cx="847.535" cy="585.167" r="2.47875" fill="#132039"/>
<circle cx="792.507" cy="617.391" r="2.47875" fill="#132039"/>
<circle cx="737.479" cy="585.167" r="2.47875" fill="#132039"/>
<circle cx="737.479" cy="522.207" r="2.47875" fill="#132039"/>
<path d="M972.052 723.825L1026.01 754.976V817.277L972.052 786.126V723.825ZM1026.51 754.11L972.552 722.959L1026.51 691.808L1080.46 722.959L1026.51 754.11ZM1027.01 754.976L1080.96 723.825V786.126L1027.01 817.277V754.976Z" fill="#132039" stroke="#3A547A"/>
<circle cx="1026.51" cy="754.935" r="2.47875" fill="#132039"/>
<circle cx="1026.51" cy="691.479" r="2.47875" fill="#132039"/>
<circle cx="1081.54" cy="723.207" r="2.47875" fill="#132039"/>
<circle cx="1081.54" cy="786.167" r="2.47875" fill="#132039"/>
<circle cx="971.479" cy="786.167" r="2.47875" fill="#132039"/>
<circle cx="971.479" cy="723.207" r="2.47875" fill="#132039"/>
<path d="M504.052 321.825L558.007 352.976V415.277L504.052 384.126V321.825ZM558.507 352.11L504.552 320.959L558.507 289.808L612.461 320.959L558.507 352.11ZM559.007 352.976L612.961 321.825V384.126L559.007 415.277V352.976Z" fill="#132039" stroke="#3A547A"/>
<circle cx="558.507" cy="352.935" r="2.47875" fill="#132039"/>
<circle cx="558.507" cy="289.479" r="2.47875" fill="#132039"/>
<circle cx="613.535" cy="321.207" r="2.47875" fill="#132039"/>
<circle cx="613.535" cy="384.167" r="2.47875" fill="#132039"/>
<circle cx="558.507" cy="416.391" r="2.47875" fill="#132039"/>
<circle cx="503.479" cy="384.167" r="2.47875" fill="#132039"/>
<circle cx="503.479" cy="321.207" r="2.47875" fill="#132039"/>
<path d="M270.052 120.825L324.007 151.976V214.277L270.052 183.126V120.825ZM324.507 151.11L270.552 119.959L324.507 88.8082L378.461 119.959L324.507 151.11ZM325.007 151.976L378.961 120.825V183.126L325.007 214.277V151.976Z" fill="#132039" stroke="#3A547A"/>
<circle cx="324.507" cy="151.935" r="2.47875" fill="#132039"/>
<circle cx="324.507" cy="88.4788" r="2.47875" fill="#132039"/>
<circle cx="379.535" cy="120.207" r="2.47875" fill="#132039"/>
<circle cx="379.535" cy="183.167" r="2.47875" fill="#132039"/>
<circle cx="324.507" cy="215.391" r="2.47875" fill="#132039"/>
<circle cx="269.479" cy="183.167" r="2.47875" fill="#132039"/>
<circle cx="269.479" cy="120.207" r="2.47875" fill="#132039"/>
<path d="M796.052 421.825L850.007 452.976V515.277L796.052 484.126V421.825ZM850.507 452.11L796.552 420.959L850.507 389.808L904.461 420.959L850.507 452.11ZM851.007 452.976L904.961 421.825V484.126L851.007 515.277V452.976Z" fill="#132039" stroke="#3A547A"/>
<circle cx="850.507" cy="452.935" r="2.47875" fill="#132039"/>
<circle cx="850.507" cy="389.479" r="2.47875" fill="#132039"/>
<circle cx="905.535" cy="421.207" r="2.47875" fill="#132039"/>
<circle cx="905.535" cy="484.167" r="2.47875" fill="#132039"/>
<circle cx="850.507" cy="516.391" r="2.47875" fill="#132039"/>
<circle cx="795.479" cy="484.167" r="2.47875" fill="#132039"/>
<circle cx="795.479" cy="421.207" r="2.47875" fill="#132039"/>
<path d="M1030.05 622.825L1084.01 653.976V716.277L1030.05 685.126V622.825ZM1084.51 653.11L1030.55 621.959L1084.51 590.808L1138.46 621.959L1084.51 653.11ZM1085.01 653.976L1138.96 622.825V685.126L1085.01 716.277V653.976Z" fill="#132039" stroke="#3A547A"/>
<circle cx="1084.51" cy="653.935" r="2.47875" fill="#132039"/>
<circle cx="1084.51" cy="590.479" r="2.47875" fill="#132039"/>
<circle cx="1139.54" cy="622.207" r="2.47875" fill="#132039"/>
<circle cx="1139.54" cy="685.167" r="2.47875" fill="#132039"/>
<circle cx="1084.51" cy="717.391" r="2.47875" fill="#132039"/>
<circle cx="1029.48" cy="685.167" r="2.47875" fill="#132039"/>
<circle cx="1029.48" cy="622.207" r="2.47875" fill="#132039"/>
<path d="M1264.05 823.825L1318.01 854.976V917.277L1264.05 886.126V823.825ZM1318.51 854.11L1264.55 822.959L1318.51 791.808L1372.46 822.959L1318.51 854.11ZM1319.01 854.976L1372.96 823.825V886.126L1319.01 917.277V854.976Z" fill="#132039" stroke="#3A547A"/>
<circle cx="1318.51" cy="791.479" r="2.47875" fill="#132039"/>
<path d="M562.052 220.825L616.007 251.976V314.277L562.052 283.126V220.825ZM616.507 251.11L562.552 219.959L616.507 188.808L670.461 219.959L616.507 251.11ZM617.007 251.976L670.961 220.825V283.126L617.007 314.277V251.976Z" fill="#132039" stroke="#3A547A"/>
<circle cx="616.507" cy="251.935" r="2.47875" fill="#132039"/>
<circle cx="616.507" cy="188.479" r="2.47875" fill="#132039"/>
<circle cx="671.535" cy="220.207" r="2.47875" fill="#132039"/>
<circle cx="671.535" cy="283.167" r="2.47875" fill="#132039"/>
<circle cx="616.507" cy="315.391" r="2.47875" fill="#132039"/>
<circle cx="561.479" cy="283.167" r="2.47875" fill="#132039"/>
<circle cx="561.479" cy="220.207" r="2.47875" fill="#132039"/>
<path d="M328.052 19.825L382.007 50.9757V113.277L328.052 82.1264V19.825ZM382.507 50.1096L328.552 18.9589L382.507 -12.1918L436.461 18.9589L382.507 50.1096ZM383.007 50.9757L436.961 19.825V82.1264L383.007 113.277V50.9757Z" fill="#132039" stroke="#3A547A"/>
<circle cx="382.507" cy="50.9348" r="2.47875" fill="#132039"/>
<circle cx="437.535" cy="19.2068" r="2.47875" fill="#132039"/>
<circle cx="437.535" cy="82.1671" r="2.47875" fill="#132039"/>
<circle cx="382.507" cy="114.391" r="2.47875" fill="#132039"/>
<circle cx="327.479" cy="82.1671" r="2.47875" fill="#132039"/>
<circle cx="327.479" cy="19.2068" r="2.47875" fill="#132039"/>
<path d="M738.052 321.825L792.007 352.976V415.277L738.052 384.126V321.825ZM792.507 352.11L738.552 320.959L792.507 289.808L846.461 320.959L792.507 352.11ZM793.007 352.976L846.961 321.825V384.126L793.007 415.277V352.976Z" fill="#132039" stroke="#3A547A"/>
<circle cx="792.507" cy="352.935" r="2.47875" fill="#132039"/>
<circle cx="792.507" cy="289.479" r="2.47875" fill="#132039"/>
<circle cx="847.535" cy="321.207" r="2.47875" fill="#132039"/>
<circle cx="847.535" cy="384.167" r="2.47875" fill="#132039"/>
<circle cx="792.507" cy="416.391" r="2.47875" fill="#132039"/>
<circle cx="737.479" cy="384.167" r="2.47875" fill="#132039"/>
<circle cx="737.479" cy="321.207" r="2.47875" fill="#132039"/>
<path d="M972.052 522.825L1026.01 553.976V616.277L972.052 585.126V522.825ZM1026.51 553.11L972.552 521.959L1026.51 490.808L1080.46 521.959L1026.51 553.11ZM1027.01 553.976L1080.96 522.825V585.126L1027.01 616.277V553.976Z" fill="#132039" stroke="#3A547A"/>
<circle cx="1026.51" cy="553.935" r="2.47875" fill="#132039"/>
<circle cx="1026.51" cy="490.479" r="2.47875" fill="#132039"/>
<circle cx="1081.54" cy="522.207" r="2.47875" fill="#132039"/>
<circle cx="1081.54" cy="585.167" r="2.47875" fill="#132039"/>
<circle cx="1026.51" cy="617.391" r="2.47875" fill="#132039"/>
<circle cx="971.479" cy="585.167" r="2.47875" fill="#132039"/>
<circle cx="971.479" cy="522.207" r="2.47875" fill="#132039"/>
<path d="M1206.05 723.825L1260.01 754.976V817.277L1206.05 786.126V723.825ZM1260.51 754.11L1206.55 722.959L1260.51 691.808L1314.46 722.959L1260.51 754.11ZM1261.01 754.976L1314.96 723.825V786.126L1261.01 817.277V754.976Z" fill="#132039" stroke="#3A547A"/>
<circle cx="1260.51" cy="754.935" r="2.47875" fill="#132039"/>
<circle cx="1260.51" cy="691.479" r="2.47875" fill="#132039"/>
<circle cx="1315.54" cy="723.207" r="2.47875" fill="#132039"/>
<circle cx="1315.54" cy="786.167" r="2.47875" fill="#132039"/>
<circle cx="1205.48" cy="786.167" r="2.47875" fill="#132039"/>
<circle cx="1205.48" cy="723.207" r="2.47875" fill="#132039"/>
<path d="M504.052 120.825L558.007 151.976V214.277L504.052 183.126V120.825ZM558.507 151.11L504.552 119.959L558.507 88.8082L612.461 119.959L558.507 151.11ZM559.007 151.976L612.961 120.825V183.126L559.007 214.277V151.976Z" fill="#132039" stroke="#3A547A"/>
<circle cx="558.507" cy="151.935" r="2.47875" fill="#132039"/>
<circle cx="558.507" cy="88.4788" r="2.47875" fill="#132039"/>
<circle cx="613.535" cy="120.207" r="2.47875" fill="#132039"/>
<circle cx="613.535" cy="183.167" r="2.47875" fill="#132039"/>
<circle cx="558.507" cy="215.391" r="2.47875" fill="#132039"/>
<circle cx="503.479" cy="183.167" r="2.47875" fill="#132039"/>
<circle cx="503.479" cy="120.207" r="2.47875" fill="#132039"/>
<path d="M270.052 -80.175L324.007 -49.0243V13.2771L270.052 -17.8736V-80.175ZM324.507 -49.8904L270.552 -81.0411L324.507 -112.192L378.461 -81.0411L324.507 -49.8904ZM325.007 -49.0243L378.961 -80.175V-17.8736L325.007 13.2771V-49.0243Z" fill="#132039" stroke="#3A547A"/>
<circle cx="324.507" cy="14.391" r="2.47875" fill="#132039"/>
<path d="M679.052 421.825L733.007 452.976V515.277L679.052 484.126V421.825ZM733.507 452.11L679.552 420.959L733.507 389.808L787.461 420.959L733.507 452.11ZM734.007 452.976L787.961 421.825V484.126L734.007 515.277V452.976Z" fill="#132039" stroke="#3A547A"/>
<circle cx="733.507" cy="452.935" r="2.47875" fill="#132039"/>
<circle cx="733.507" cy="389.479" r="2.47875" fill="#132039"/>
<circle cx="788.535" cy="421.207" r="2.47875" fill="#132039"/>
<circle cx="788.535" cy="484.167" r="2.47875" fill="#132039"/>
<circle cx="733.507" cy="516.391" r="2.47875" fill="#132039"/>
<circle cx="678.479" cy="484.167" r="2.47875" fill="#132039"/>
<circle cx="678.479" cy="421.207" r="2.47875" fill="#132039"/>
<path d="M913.052 622.825L967.007 653.976V716.277L913.052 685.126V622.825ZM967.507 653.11L913.552 621.959L967.507 590.808L1021.46 621.959L967.507 653.11ZM968.007 653.976L1021.96 622.825V685.126L968.007 716.277V653.976Z" fill="#132039" stroke="#3A547A"/>
<circle cx="967.507" cy="653.935" r="2.47875" fill="#132039"/>
<circle cx="967.507" cy="590.479" r="2.47875" fill="#132039"/>
<circle cx="1022.54" cy="622.207" r="2.47875" fill="#132039"/>
<circle cx="1022.54" cy="685.167" r="2.47875" fill="#132039"/>
<circle cx="967.507" cy="717.391" r="2.47875" fill="#132039"/>
<circle cx="912.479" cy="685.167" r="2.47875" fill="#132039"/>
<circle cx="912.479" cy="622.207" r="2.47875" fill="#132039"/>
<path d="M1147.05 823.825L1201.01 854.976V917.277L1147.05 886.126V823.825ZM1201.51 854.11L1147.55 822.959L1201.51 791.808L1255.46 822.959L1201.51 854.11ZM1202.01 854.976L1255.96 823.825V886.126L1202.01 917.277V854.976Z" fill="#132039" stroke="#3A547A"/>
<circle cx="1201.51" cy="791.479" r="2.47875" fill="#132039"/>
<path d="M445.052 220.825L499.007 251.976V314.277L445.052 283.126V220.825ZM499.507 251.11L445.552 219.959L499.507 188.808L553.461 219.959L499.507 251.11ZM500.007 251.976L553.961 220.825V283.126L500.007 314.277V251.976Z" fill="#132039" stroke="#3A547A"/>
<circle cx="499.507" cy="251.935" r="2.47875" fill="#132039"/>
<circle cx="499.507" cy="188.479" r="2.47875" fill="#132039"/>
<circle cx="554.535" cy="220.207" r="2.47875" fill="#132039"/>
<circle cx="554.535" cy="283.167" r="2.47875" fill="#132039"/>
<circle cx="499.507" cy="315.391" r="2.47875" fill="#132039"/>
<circle cx="444.479" cy="283.167" r="2.47875" fill="#132039"/>
<circle cx="444.479" cy="220.207" r="2.47875" fill="#132039"/>
<path d="M211.052 19.825L265.007 50.9757V113.277L211.052 82.1264V19.825ZM265.507 50.1096L211.552 18.9589L265.507 -12.1918L319.461 18.9589L265.507 50.1096ZM266.007 50.9757L319.961 19.825V82.1264L266.007 113.277V50.9757Z" fill="#132039" stroke="#3A547A"/>
<circle cx="265.507" cy="50.9348" r="2.47875" fill="#132039"/>
<circle cx="320.535" cy="19.2068" r="2.47875" fill="#132039"/>
<circle cx="320.535" cy="82.1671" r="2.47875" fill="#132039"/>
<circle cx="265.507" cy="114.391" r="2.47875" fill="#132039"/>
<circle cx="210.479" cy="82.1671" r="2.47875" fill="#132039"/>
<circle cx="210.479" cy="19.2068" r="2.47875" fill="#132039"/>
<path d="M620.052 321.825L674.007 352.976V415.277L620.052 384.126V321.825ZM674.507 352.11L620.552 320.959L674.507 289.808L728.461 320.959L674.507 352.11ZM675.007 352.976L728.961 321.825V384.126L675.007 415.277V352.976Z" fill="#132039" stroke="#3A547A"/>
<circle cx="674.507" cy="352.935" r="2.47875" fill="#132039"/>
<circle cx="674.507" cy="289.479" r="2.47875" fill="#132039"/>
<circle cx="729.535" cy="321.207" r="2.47875" fill="#132039"/>
<circle cx="729.535" cy="384.167" r="2.47875" fill="#132039"/>
<circle cx="674.507" cy="416.391" r="2.47875" fill="#132039"/>
<circle cx="619.479" cy="384.167" r="2.47875" fill="#132039"/>
<circle cx="619.479" cy="321.207" r="2.47875" fill="#132039"/>
<path d="M854.052 522.825L908.007 553.976V616.277L854.052 585.126V522.825ZM908.507 553.11L854.552 521.959L908.507 490.808L962.461 521.959L908.507 553.11ZM909.007 553.976L962.961 522.825V585.126L909.007 616.277V553.976Z" fill="#132039" stroke="#3A547A"/>
<circle cx="908.507" cy="553.935" r="2.47875" fill="#132039"/>
<circle cx="908.507" cy="490.479" r="2.47875" fill="#132039"/>
<circle cx="963.535" cy="522.207" r="2.47875" fill="#132039"/>
<circle cx="963.535" cy="585.167" r="2.47875" fill="#132039"/>
<circle cx="908.507" cy="617.391" r="2.47875" fill="#132039"/>
<circle cx="853.479" cy="585.167" r="2.47875" fill="#132039"/>
<circle cx="853.479" cy="522.207" r="2.47875" fill="#132039"/>
<path d="M1088.05 723.825L1142.01 754.976V817.277L1088.05 786.126V723.825ZM1142.51 754.11L1088.55 722.959L1142.51 691.808L1196.46 722.959L1142.51 754.11ZM1143.01 754.976L1196.96 723.825V786.126L1143.01 817.277V754.976Z" fill="#132039" stroke="#3A547A"/>
<circle cx="1142.51" cy="754.935" r="2.47875" fill="#132039"/>
<circle cx="1142.51" cy="691.479" r="2.47875" fill="#132039"/>
<circle cx="1197.54" cy="723.207" r="2.47875" fill="#132039"/>
<circle cx="1197.54" cy="786.167" r="2.47875" fill="#132039"/>
<circle cx="1087.48" cy="786.167" r="2.47875" fill="#132039"/>
<circle cx="1087.48" cy="723.207" r="2.47875" fill="#132039"/>
<path d="M386.052 120.825L440.007 151.976V214.277L386.052 183.126V120.825ZM440.507 151.11L386.552 119.959L440.507 88.8082L494.461 119.959L440.507 151.11ZM441.007 151.976L494.961 120.825V183.126L441.007 214.277V151.976Z" fill="#132039" stroke="#3A547A"/>
<circle cx="440.507" cy="151.935" r="2.47875" fill="#132039"/>
<circle cx="440.507" cy="88.4788" r="2.47875" fill="#132039"/>
<circle cx="495.535" cy="120.207" r="2.47875" fill="#132039"/>
<circle cx="495.535" cy="183.167" r="2.47875" fill="#132039"/>
<circle cx="440.507" cy="215.391" r="2.47875" fill="#132039"/>
<circle cx="385.479" cy="183.167" r="2.47875" fill="#132039"/>
<circle cx="385.479" cy="120.207" r="2.47875" fill="#132039"/>
<path d="M152.052 -80.175L206.007 -49.0243V13.2771L152.052 -17.8736V-80.175ZM206.507 -49.8904L152.552 -81.0411L206.507 -112.192L260.461 -81.0411L206.507 -49.8904ZM207.007 -49.0243L260.961 -80.175V-17.8736L207.007 13.2771V-49.0243Z" fill="#132039" stroke="#3A547A"/>
<circle cx="206.507" cy="14.391" r="2.47875" fill="#132039"/>
<path d="M562.052 421.825L616.007 452.976V515.277L562.052 484.126V421.825ZM616.507 452.11L562.552 420.959L616.507 389.808L670.461 420.959L616.507 452.11ZM617.007 452.976L670.961 421.825V484.126L617.007 515.277V452.976Z" fill="#132039" stroke="#3A547A"/>
<circle cx="616.507" cy="452.935" r="2.47875" fill="#132039"/>
<circle cx="616.507" cy="389.479" r="2.47875" fill="#132039"/>
<circle cx="671.535" cy="421.207" r="2.47875" fill="#132039"/>
<circle cx="671.535" cy="484.167" r="2.47875" fill="#132039"/>
<circle cx="616.507" cy="516.391" r="2.47875" fill="#132039"/>
<circle cx="561.479" cy="484.167" r="2.47875" fill="#132039"/>
<circle cx="561.479" cy="421.207" r="2.47875" fill="#132039"/>
<path d="M796.052 622.825L850.007 653.976V716.277L796.052 685.126V622.825ZM850.507 653.11L796.552 621.959L850.507 590.808L904.461 621.959L850.507 653.11ZM851.007 653.976L904.961 622.825V685.126L851.007 716.277V653.976Z" fill="#132039" stroke="#3A547A"/>
<circle cx="850.507" cy="653.935" r="2.47875" fill="#132039"/>
<circle cx="850.507" cy="590.479" r="2.47875" fill="#132039"/>
<circle cx="905.535" cy="622.207" r="2.47875" fill="#132039"/>
<circle cx="905.535" cy="685.167" r="2.47875" fill="#132039"/>
<circle cx="850.507" cy="717.391" r="2.47875" fill="#132039"/>
<circle cx="795.479" cy="685.167" r="2.47875" fill="#132039"/>
<circle cx="795.479" cy="622.207" r="2.47875" fill="#132039"/>
<path d="M1030.05 823.825L1084.01 854.976V917.277L1030.05 886.126V823.825ZM1084.51 854.11L1030.55 822.959L1084.51 791.808L1138.46 822.959L1084.51 854.11ZM1085.01 854.976L1138.96 823.825V886.126L1085.01 917.277V854.976Z" fill="#132039" stroke="#3A547A"/>
<circle cx="1084.51" cy="791.479" r="2.47875" fill="#132039"/>
<path d="M328.052 220.825L382.007 251.976V314.277L328.052 283.126V220.825ZM382.507 251.11L328.552 219.959L382.507 188.808L436.461 219.959L382.507 251.11ZM383.007 251.976L436.961 220.825V283.126L383.007 314.277V251.976Z" fill="#132039" stroke="#3A547A"/>
<circle cx="382.507" cy="251.935" r="2.47875" fill="#132039"/>
<circle cx="382.507" cy="188.479" r="2.47875" fill="#132039"/>
<circle cx="437.535" cy="220.207" r="2.47875" fill="#132039"/>
<circle cx="437.535" cy="283.167" r="2.47875" fill="#132039"/>
<circle cx="382.507" cy="315.391" r="2.47875" fill="#132039"/>
<circle cx="327.479" cy="283.167" r="2.47875" fill="#132039"/>
<circle cx="327.479" cy="220.207" r="2.47875" fill="#132039"/>
<path d="M94.0522 19.825L148.007 50.9757V113.277L94.0522 82.1264V19.825ZM148.507 50.1096L94.5522 18.9589L148.507 -12.1918L202.461 18.9589L148.507 50.1096ZM149.007 50.9757L202.961 19.825V82.1264L149.007 113.277V50.9757Z" fill="#132039" stroke="#3A547A"/>
<circle cx="148.507" cy="50.9348" r="2.47875" fill="#132039"/>
<circle cx="203.535" cy="19.2068" r="2.47875" fill="#132039"/>
<circle cx="203.535" cy="82.1671" r="2.47875" fill="#132039"/>
<circle cx="148.507" cy="114.391" r="2.47875" fill="#132039"/>
<circle cx="93.4788" cy="82.1671" r="2.47875" fill="#132039"/>
<circle cx="93.4788" cy="19.2068" r="2.47875" fill="#132039"/>
<path d="M43.0381 769.604L96.9927 800.755V863.056L43.0381 831.905V769.604ZM97.4927 799.889L43.5381 768.738L97.4927 737.587L151.447 768.738L97.4927 799.889ZM97.9927 800.755L151.947 769.604V831.905L97.9927 863.056V800.755Z" fill="#132039" stroke="#3A547A"/>
<circle cx="97.4929" cy="800.714" r="2.47875" fill="#132039"/>
<circle cx="97.4929" cy="737.258" r="2.47875" fill="#132039"/>
<circle cx="152.521" cy="768.986" r="2.47875" fill="#132039"/>
<circle cx="42.4646" cy="768.986" r="2.47875" fill="#132039"/>
<path d="M160.052 769.825L214.007 800.976V863.277L160.052 832.126V769.825ZM214.507 800.11L160.552 768.959L214.507 737.808L268.461 768.959L214.507 800.11ZM215.007 800.976L268.961 769.825V832.126L215.007 863.277V800.976Z" fill="#132039" stroke="#3A547A"/>
<circle cx="214.507" cy="800.935" r="2.47875" fill="#132039"/>
<circle cx="214.507" cy="737.479" r="2.47875" fill="#132039"/>
<circle cx="269.535" cy="769.207" r="2.47875" fill="#132039"/>
<circle cx="159.479" cy="769.207" r="2.47875" fill="#132039"/>
<path d="M-73.9478 568.825L-19.9932 599.976V662.277L-73.9478 631.126V568.825ZM-19.4932 599.11L-73.4478 567.959L-19.4932 536.808L34.4614 567.959L-19.4932 599.11ZM-18.9932 599.976L34.9614 568.825V631.126L-18.9932 662.277V599.976Z" fill="#132039" stroke="#3A547A"/>
<circle cx="35.5354" cy="568.207" r="2.47875" fill="#132039"/>
<circle cx="35.5354" cy="631.167" r="2.47875" fill="#132039"/>
<path d="M218.052 668.825L272.007 699.976V762.277L218.052 731.126V668.825ZM272.507 699.11L218.552 667.959L272.507 636.808L326.461 667.959L272.507 699.11ZM273.007 699.976L326.961 668.825V731.126L273.007 762.277V699.976Z" fill="#132039" stroke="#3A547A"/>
<circle cx="272.507" cy="699.935" r="2.47875" fill="#132039"/>
<circle cx="272.507" cy="636.479" r="2.47875" fill="#132039"/>
<circle cx="327.535" cy="668.207" r="2.47875" fill="#132039"/>
<circle cx="327.535" cy="731.167" r="2.47875" fill="#132039"/>
<circle cx="272.507" cy="763.391" r="2.47875" fill="#132039"/>
<circle cx="217.479" cy="731.167" r="2.47875" fill="#132039"/>
<circle cx="217.479" cy="668.207" r="2.47875" fill="#132039"/>
<path d="M-15.9478 467.825L38.0068 498.976V561.277L-15.9478 530.126V467.825ZM38.5068 498.11L-15.4478 466.959L38.5068 435.808L92.4614 466.959L38.5068 498.11ZM39.0068 498.976L92.9614 467.825V530.126L39.0068 561.277V498.976Z" fill="#132039" stroke="#3A547A"/>
<circle cx="38.5071" cy="498.935" r="2.47875" fill="#132039"/>
<circle cx="38.5071" cy="435.479" r="2.47875" fill="#132039"/>
<circle cx="93.5354" cy="467.207" r="2.47875" fill="#132039"/>
<circle cx="93.5354" cy="530.167" r="2.47875" fill="#132039"/>
<circle cx="38.5071" cy="562.391" r="2.47875" fill="#132039"/>
<path d="M160.052 568.825L214.007 599.976V662.277L160.052 631.126V568.825ZM214.507 599.11L160.552 567.959L214.507 536.808L268.461 567.959L214.507 599.11ZM215.007 599.976L268.961 568.825V631.126L215.007 662.277V599.976Z" fill="#132039" stroke="#3A547A"/>
<circle cx="214.507" cy="599.935" r="2.47875" fill="#132039"/>
<circle cx="214.507" cy="536.479" r="2.47875" fill="#132039"/>
<circle cx="269.535" cy="568.207" r="2.47875" fill="#132039"/>
<circle cx="269.535" cy="631.167" r="2.47875" fill="#132039"/>
<circle cx="214.507" cy="663.391" r="2.47875" fill="#132039"/>
<circle cx="159.479" cy="631.167" r="2.47875" fill="#132039"/>
<circle cx="159.479" cy="568.207" r="2.47875" fill="#132039"/>
<path d="M394.052 769.825L448.007 800.976V863.277L394.052 832.126V769.825ZM448.507 800.11L394.552 768.959L448.507 737.808L502.461 768.959L448.507 800.11ZM449.007 800.976L502.961 769.825V832.126L449.007 863.277V800.976Z" fill="#132039" stroke="#3A547A"/>
<circle cx="448.507" cy="800.935" r="2.47875" fill="#132039"/>
<circle cx="448.507" cy="737.479" r="2.47875" fill="#132039"/>
<circle cx="503.535" cy="769.207" r="2.47875" fill="#132039"/>
<circle cx="393.479" cy="769.207" r="2.47875" fill="#132039"/>
<path d="M-73.9478 367.825L-19.9932 398.976V461.277L-73.9478 430.126V367.825ZM-19.4932 398.11L-73.4478 366.959L-19.4932 335.808L34.4614 366.959L-19.4932 398.11ZM-18.9932 398.976L34.9614 367.825V430.126L-18.9932 461.277V398.976Z" fill="#132039" stroke="#3A547A"/>
<circle cx="35.5354" cy="367.207" r="2.47875" fill="#132039"/>
<circle cx="35.5354" cy="430.167" r="2.47875" fill="#132039"/>
<path d="M101.052 668.825L155.007 699.976V762.277L101.052 731.126V668.825ZM155.507 699.11L101.552 667.959L155.507 636.808L209.461 667.959L155.507 699.11ZM156.007 699.976L209.961 668.825V731.126L156.007 762.277V699.976Z" fill="#132039" stroke="#3A547A"/>
<circle cx="155.507" cy="699.935" r="2.47875" fill="#132039"/>
<circle cx="155.507" cy="636.479" r="2.47875" fill="#132039"/>
<circle cx="210.535" cy="668.207" r="2.47875" fill="#132039"/>
<circle cx="210.535" cy="731.167" r="2.47875" fill="#132039"/>
<circle cx="155.507" cy="763.391" r="2.47875" fill="#132039"/>
<circle cx="100.479" cy="731.167" r="2.47875" fill="#132039"/>
<circle cx="100.479" cy="668.207" r="2.47875" fill="#132039"/>
<path d="M42.0522 568.825L96.0068 599.976V662.277L42.0522 631.126V568.825ZM96.5068 599.11L42.5522 567.959L96.5068 536.808L150.461 567.959L96.5068 599.11ZM97.0068 599.976L150.961 568.825V631.126L97.0068 662.277V599.976Z" fill="#132039" stroke="#3A547A"/>
<circle cx="96.5071" cy="599.935" r="2.47875" fill="#132039"/>
<circle cx="96.5071" cy="536.479" r="2.47875" fill="#132039"/>
<circle cx="151.535" cy="568.207" r="2.47875" fill="#132039"/>
<circle cx="151.535" cy="631.167" r="2.47875" fill="#132039"/>
<circle cx="96.5071" cy="663.391" r="2.47875" fill="#132039"/>
<circle cx="41.4788" cy="631.167" r="2.47875" fill="#132039"/>
<circle cx="41.4788" cy="568.207" r="2.47875" fill="#132039"/>
<path d="M276.052 769.825L330.007 800.976V863.277L276.052 832.126V769.825ZM330.507 800.11L276.552 768.959L330.507 737.808L384.461 768.959L330.507 800.11ZM331.007 800.976L384.961 769.825V832.126L331.007 863.277V800.976Z" fill="#132039" stroke="#3A547A"/>
<circle cx="330.507" cy="800.935" r="2.47875" fill="#132039"/>
<circle cx="330.507" cy="737.479" r="2.47875" fill="#132039"/>
<circle cx="385.535" cy="769.207" r="2.47875" fill="#132039"/>
<circle cx="275.479" cy="769.207" r="2.47875" fill="#132039"/>
<path d="M-15.9478 668.825L38.0068 699.976V762.277L-15.9478 731.126V668.825ZM38.5068 699.11L-15.4478 667.959L38.5068 636.808L92.4614 667.959L38.5068 699.11ZM39.0068 699.976L92.9614 668.825V731.126L39.0068 762.277V699.976Z" fill="#132039" stroke="#3A547A"/>
<circle cx="38.5071" cy="699.935" r="2.47875" fill="#132039"/>
<circle cx="38.5071" cy="636.479" r="2.47875" fill="#132039"/>
<circle cx="93.5354" cy="668.207" r="2.47875" fill="#132039"/>
<circle cx="93.5354" cy="731.167" r="2.47875" fill="#132039"/>
<circle cx="38.5071" cy="763.391" r="2.47875" fill="#132039"/>
<path d="M1185.04 327.604L1238.99 358.755V421.056L1185.04 389.905V327.604ZM1239.49 357.889L1185.54 326.738L1239.49 295.587L1293.45 326.738L1239.49 357.889ZM1239.99 358.755L1293.95 327.604V389.905L1239.99 421.056V358.755Z" fill="#132039" stroke="#3A547A"/>
<circle cx="1239.49" cy="358.714" r="2.47875" fill="#132039"/>
<circle cx="1239.49" cy="295.258" r="2.47875" fill="#132039"/>
<circle cx="1294.52" cy="326.986" r="2.47875" fill="#132039"/>
<circle cx="1294.52" cy="389.946" r="2.47875" fill="#132039"/>
<circle cx="1239.49" cy="422.17" r="2.47875" fill="#132039"/>
<circle cx="1184.46" cy="389.946" r="2.47875" fill="#132039"/>
<circle cx="1184.46" cy="326.986" r="2.47875" fill="#132039"/>
<path d="M1419.04 528.604L1472.99 559.755V622.056L1419.04 590.905V528.604ZM1473.49 558.889L1419.54 527.738L1473.49 496.587L1527.45 527.738L1473.49 558.889ZM1473.99 559.755L1527.95 528.604V590.905L1473.99 622.056V559.755Z" fill="#132039" stroke="#3A547A"/>
<circle cx="1418.46" cy="590.946" r="2.47875" fill="#132039"/>
<circle cx="1418.46" cy="527.986" r="2.47875" fill="#132039"/>
<path d="M951.038 126.604L1004.99 157.755V220.056L951.038 188.905V126.604ZM1005.49 156.889L951.538 125.738L1005.49 94.5873L1059.45 125.738L1005.49 156.889ZM1005.99 157.755L1059.95 126.604V188.905L1005.99 220.056V157.755Z" fill="#132039" stroke="#3A547A"/>
<circle cx="1005.49" cy="157.714" r="2.47875" fill="#132039"/>
<circle cx="1005.49" cy="94.2578" r="2.47875" fill="#132039"/>
<circle cx="1060.52" cy="125.986" r="2.47875" fill="#132039"/>
<circle cx="1060.52" cy="188.946" r="2.47875" fill="#132039"/>
<circle cx="1005.49" cy="221.17" r="2.47875" fill="#132039"/>
<circle cx="950.465" cy="188.946" r="2.47875" fill="#132039"/>
<circle cx="950.465" cy="125.986" r="2.47875" fill="#132039"/>
<path d="M717.038 -74.396L770.993 -43.2453V19.0561L717.038 -12.0946V-74.396ZM771.493 -44.1113L717.538 -75.262L771.493 -106.413L825.447 -75.262L771.493 -44.1113ZM771.993 -43.2453L825.947 -74.396V-12.0946L771.993 19.0561V-43.2453Z" fill="#132039" stroke="#3A547A"/>
<circle cx="771.493" cy="20.17" r="2.47875" fill="#132039"/>
<path d="M1302.05 327.825L1356.01 358.976V421.277L1302.05 390.126V327.825ZM1356.51 358.11L1302.55 326.959L1356.51 295.808L1410.46 326.959L1356.51 358.11ZM1357.01 358.976L1410.96 327.825V390.126L1357.01 421.277V358.976Z" fill="#132039" stroke="#3A547A"/>
<circle cx="1356.51" cy="358.935" r="2.47875" fill="#132039"/>
<circle cx="1356.51" cy="295.479" r="2.47875" fill="#132039"/>
<circle cx="1411.54" cy="327.207" r="2.47875" fill="#132039"/>
<circle cx="1411.54" cy="390.167" r="2.47875" fill="#132039"/>
<circle cx="1356.51" cy="422.391" r="2.47875" fill="#132039"/>
<circle cx="1301.48" cy="390.167" r="2.47875" fill="#132039"/>
<circle cx="1301.48" cy="327.207" r="2.47875" fill="#132039"/>
<path d="M1068.05 126.825L1122.01 157.976V220.277L1068.05 189.126V126.825ZM1122.51 157.11L1068.55 125.959L1122.51 94.8082L1176.46 125.959L1122.51 157.11ZM1123.01 157.976L1176.96 126.825V189.126L1123.01 220.277V157.976Z" fill="#132039" stroke="#3A547A"/>
<circle cx="1122.51" cy="157.935" r="2.47875" fill="#132039"/>
<circle cx="1122.51" cy="94.4788" r="2.47875" fill="#132039"/>
<circle cx="1177.54" cy="126.207" r="2.47875" fill="#132039"/>
<circle cx="1177.54" cy="189.167" r="2.47875" fill="#132039"/>
<circle cx="1122.51" cy="221.391" r="2.47875" fill="#132039"/>
<circle cx="1067.48" cy="189.167" r="2.47875" fill="#132039"/>
<circle cx="1067.48" cy="126.207" r="2.47875" fill="#132039"/>
<path d="M834.052 -74.175L888.007 -43.0243V19.2771L834.052 -11.8736V-74.175ZM888.507 -43.8904L834.552 -75.0411L888.507 -106.192L942.461 -75.0411L888.507 -43.8904ZM889.007 -43.0243L942.961 -74.175V-11.8736L889.007 19.2771V-43.0243Z" fill="#132039" stroke="#3A547A"/>
<circle cx="888.507" cy="20.391" r="2.47875" fill="#132039"/>
<path d="M1360.05 226.825L1414.01 257.976V320.277L1360.05 289.126V226.825ZM1414.51 257.11L1360.55 225.959L1414.51 194.808L1468.46 225.959L1414.51 257.11ZM1415.01 257.976L1468.96 226.825V289.126L1415.01 320.277V257.976Z" fill="#132039" stroke="#3A547A"/>
<circle cx="1414.51" cy="257.935" r="2.47875" fill="#132039"/>
<circle cx="1414.51" cy="194.479" r="2.47875" fill="#132039"/>
<circle cx="1414.51" cy="321.391" r="2.47875" fill="#132039"/>
<circle cx="1359.48" cy="289.167" r="2.47875" fill="#132039"/>
<circle cx="1359.48" cy="226.207" r="2.47875" fill="#132039"/>
<path d="M1126.05 25.825L1180.01 56.9757V119.277L1126.05 88.1264V25.825ZM1180.51 56.1096L1126.55 24.9589L1180.51 -6.19175L1234.46 24.9589L1180.51 56.1096ZM1181.01 56.9757L1234.96 25.825V88.1264L1181.01 119.277V56.9757Z" fill="#132039" stroke="#3A547A"/>
<circle cx="1180.51" cy="56.9348" r="2.47875" fill="#132039"/>
<circle cx="1235.54" cy="25.2068" r="2.47875" fill="#132039"/>
<circle cx="1235.54" cy="88.1671" r="2.47875" fill="#132039"/>
<circle cx="1180.51" cy="120.391" r="2.47875" fill="#132039"/>
<circle cx="1125.48" cy="88.1671" r="2.47875" fill="#132039"/>
<circle cx="1125.48" cy="25.2068" r="2.47875" fill="#132039"/>
<path d="M1302.05 126.825L1356.01 157.976V220.277L1302.05 189.126V126.825ZM1356.51 157.11L1302.55 125.959L1356.51 94.8082L1410.46 125.959L1356.51 157.11ZM1357.01 157.976L1410.96 126.825V189.126L1357.01 220.277V157.976Z" fill="#132039" stroke="#3A547A"/>
<circle cx="1356.51" cy="157.935" r="2.47875" fill="#132039"/>
<circle cx="1356.51" cy="94.4788" r="2.47875" fill="#132039"/>
<circle cx="1411.54" cy="126.207" r="2.47875" fill="#132039"/>
<circle cx="1411.54" cy="189.167" r="2.47875" fill="#132039"/>
<circle cx="1356.51" cy="221.391" r="2.47875" fill="#132039"/>
<circle cx="1301.48" cy="189.167" r="2.47875" fill="#132039"/>
<circle cx="1301.48" cy="126.207" r="2.47875" fill="#132039"/>
<path d="M1068.05 -74.175L1122.01 -43.0243V19.2771L1068.05 -11.8736V-74.175ZM1122.51 -43.8904L1068.55 -75.0411L1122.51 -106.192L1176.46 -75.0411L1122.51 -43.8904ZM1123.01 -43.0243L1176.96 -74.175V-11.8736L1123.01 19.2771V-43.0243Z" fill="#132039" stroke="#3A547A"/>
<circle cx="1122.51" cy="20.391" r="2.47875" fill="#132039"/>
<path d="M1243.05 226.825L1297.01 257.976V320.277L1243.05 289.126V226.825ZM1297.51 257.11L1243.55 225.959L1297.51 194.808L1351.46 225.959L1297.51 257.11ZM1298.01 257.976L1351.96 226.825V289.126L1298.01 320.277V257.976Z" fill="#132039" stroke="#3A547A"/>
<circle cx="1297.51" cy="257.935" r="2.47875" fill="#132039"/>
<circle cx="1297.51" cy="194.479" r="2.47875" fill="#132039"/>
<circle cx="1352.54" cy="226.207" r="2.47875" fill="#132039"/>
<circle cx="1352.54" cy="289.167" r="2.47875" fill="#132039"/>
<circle cx="1297.51" cy="321.391" r="2.47875" fill="#132039"/>
<circle cx="1242.48" cy="289.167" r="2.47875" fill="#132039"/>
<circle cx="1242.48" cy="226.207" r="2.47875" fill="#132039"/>
<path d="M1009.05 25.825L1063.01 56.9757V119.277L1009.05 88.1264V25.825ZM1063.51 56.1096L1009.55 24.9589L1063.51 -6.19175L1117.46 24.9589L1063.51 56.1096ZM1064.01 56.9757L1117.96 25.825V88.1264L1064.01 119.277V56.9757Z" fill="#132039" stroke="#3A547A"/>
<circle cx="1063.51" cy="56.9348" r="2.47875" fill="#132039"/>
<circle cx="1118.54" cy="25.2068" r="2.47875" fill="#132039"/>
<circle cx="1118.54" cy="88.1671" r="2.47875" fill="#132039"/>
<circle cx="1063.51" cy="120.391" r="2.47875" fill="#132039"/>
<circle cx="1008.48" cy="88.1671" r="2.47875" fill="#132039"/>
<circle cx="1008.48" cy="25.2068" r="2.47875" fill="#132039"/>
<path d="M1184.05 126.825L1238.01 157.976V220.277L1184.05 189.126V126.825ZM1238.51 157.11L1184.55 125.959L1238.51 94.8082L1292.46 125.959L1238.51 157.11ZM1239.01 157.976L1292.96 126.825V189.126L1239.01 220.277V157.976Z" fill="#132039" stroke="#3A547A"/>
<circle cx="1238.51" cy="157.935" r="2.47875" fill="#132039"/>
<circle cx="1238.51" cy="94.4788" r="2.47875" fill="#132039"/>
<circle cx="1293.54" cy="126.207" r="2.47875" fill="#132039"/>
<circle cx="1293.54" cy="189.167" r="2.47875" fill="#132039"/>
<circle cx="1238.51" cy="221.391" r="2.47875" fill="#132039"/>
<circle cx="1183.48" cy="189.167" r="2.47875" fill="#132039"/>
<circle cx="1183.48" cy="126.207" r="2.47875" fill="#132039"/>
<path d="M1418.05 327.825L1472.01 358.976V421.277L1418.05 390.126V327.825ZM1472.51 358.11L1418.55 326.959L1472.51 295.808L1526.46 326.959L1472.51 358.11ZM1473.01 358.976L1526.96 327.825V390.126L1473.01 421.277V358.976Z" fill="#132039" stroke="#3A547A"/>
<circle cx="1417.48" cy="390.167" r="2.47875" fill="#132039"/>
<circle cx="1417.48" cy="327.207" r="2.47875" fill="#132039"/>
<path d="M950.052 -74.175L1004.01 -43.0243V19.2771L950.052 -11.8736V-74.175ZM1004.51 -43.8904L950.552 -75.0411L1004.51 -106.192L1058.46 -75.0411L1004.51 -43.8904ZM1005.01 -43.0243L1058.96 -74.175V-11.8736L1005.01 19.2771V-43.0243Z" fill="#132039" stroke="#3A547A"/>
<circle cx="1004.51" cy="20.391" r="2.47875" fill="#132039"/>
<path d="M1126.05 226.825L1180.01 257.976V320.277L1126.05 289.126V226.825ZM1180.51 257.11L1126.55 225.959L1180.51 194.808L1234.46 225.959L1180.51 257.11ZM1181.01 257.976L1234.96 226.825V289.126L1181.01 320.277V257.976Z" fill="#132039" stroke="#3A547A"/>
<circle cx="1180.51" cy="257.935" r="2.47875" fill="#132039"/>
<circle cx="1180.51" cy="194.479" r="2.47875" fill="#132039"/>
<circle cx="1235.54" cy="226.207" r="2.47875" fill="#132039"/>
<circle cx="1235.54" cy="289.167" r="2.47875" fill="#132039"/>
<circle cx="1180.51" cy="321.391" r="2.47875" fill="#132039"/>
<circle cx="1125.48" cy="289.167" r="2.47875" fill="#132039"/>
<circle cx="1125.48" cy="226.207" r="2.47875" fill="#132039"/>
<path d="M1360.05 427.825L1414.01 458.976V521.277L1360.05 490.126V427.825ZM1414.51 458.11L1360.55 426.959L1414.51 395.808L1468.46 426.959L1414.51 458.11ZM1415.01 458.976L1468.96 427.825V490.126L1415.01 521.277V458.976Z" fill="#132039" stroke="#3A547A"/>
<circle cx="1414.51" cy="458.935" r="2.47875" fill="#132039"/>
<circle cx="1414.51" cy="395.479" r="2.47875" fill="#132039"/>
<circle cx="1414.51" cy="522.391" r="2.47875" fill="#132039"/>
<circle cx="1359.48" cy="490.167" r="2.47875" fill="#132039"/>
<circle cx="1359.48" cy="427.207" r="2.47875" fill="#132039"/>
<path d="M892.052 25.825L946.007 56.9757V119.277L892.052 88.1264V25.825ZM946.507 56.1096L892.552 24.9589L946.507 -6.19175L1000.46 24.9589L946.507 56.1096ZM947.007 56.9757L1000.96 25.825V88.1264L947.007 119.277V56.9757Z" fill="#132039" stroke="#3A547A"/>
<circle cx="946.507" cy="56.9348" r="2.47875" fill="#132039"/>
<circle cx="1001.54" cy="25.2068" r="2.47875" fill="#132039"/>
<circle cx="1001.54" cy="88.1671" r="2.47875" fill="#132039"/>
<circle cx="946.507" cy="120.391" r="2.47875" fill="#132039"/>
<circle cx="891.479" cy="88.1671" r="2.47875" fill="#132039"/>
<circle cx="891.479" cy="25.2068" r="2.47875" fill="#132039"/>
</g>
<defs>
<clipPath id="clip0_62_3902">
<rect width="1440" height="806" fill="white"/>
</clipPath>
</defs>
</svg>
